<svg width="432" height="432" viewBox="0 0 432 432" fill="none" xmlns="http://www.w3.org/2000/svg">
<path d="M216 0L403.061 324H28.9385L216 0Z" fill="#EE6C4D"/>
<path d="M216.5 48L361.559 299.25H71.4408L216.5 48Z" fill="white"/>
<path d="M85.3963 359.455C85.3963 362.523 84.8423 365.174 83.7344 367.409C82.6264 369.644 81.1065 371.367 79.1747 372.58C77.2429 373.792 75.0365 374.398 72.5554 374.398C70.0743 374.398 67.8679 373.792 65.9361 372.58C64.0043 371.367 62.4844 369.644 61.3764 367.409C60.2685 365.174 59.7145 362.523 59.7145 359.455C59.7145 356.386 60.2685 353.735 61.3764 351.5C62.4844 349.265 64.0043 347.542 65.9361 346.33C67.8679 345.117 70.0743 344.511 72.5554 344.511C75.0365 344.511 77.2429 345.117 79.1747 346.33C81.1065 347.542 82.6264 349.265 83.7344 351.5C84.8423 353.735 85.3963 356.386 85.3963 359.455ZM81.9872 359.455C81.9872 356.936 81.5658 354.81 80.723 353.077C79.8897 351.344 78.758 350.032 77.3281 349.142C75.9077 348.252 74.3168 347.807 72.5554 347.807C70.794 347.807 69.1984 348.252 67.7685 349.142C66.348 350.032 65.2164 351.344 64.3736 353.077C63.5402 354.81 63.1236 356.936 63.1236 359.455C63.1236 361.973 63.5402 364.099 64.3736 365.832C65.2164 367.565 66.348 368.877 67.7685 369.767C69.1984 370.657 70.794 371.102 72.5554 371.102C74.3168 371.102 75.9077 370.657 77.3281 369.767C78.758 368.877 79.8897 367.565 80.723 365.832C81.5658 364.099 81.9872 361.973 81.9872 359.455ZM90.8651 374V352.182H94.1037V355.477H94.331C94.7287 354.398 95.4484 353.522 96.4901 352.849C97.5317 352.177 98.706 351.841 100.013 351.841C100.259 351.841 100.567 351.846 100.936 351.855C101.305 351.865 101.585 351.879 101.774 351.898V355.307C101.661 355.278 101.4 355.236 100.993 355.179C100.595 355.113 100.174 355.08 99.7287 355.08C98.6681 355.08 97.7211 355.302 96.8878 355.747C96.0639 356.183 95.4105 356.789 94.9276 357.565C94.4541 358.332 94.2173 359.208 94.2173 360.193V374H90.8651ZM113.891 382.636C112.271 382.636 110.879 382.428 109.714 382.011C108.55 381.604 107.579 381.064 106.803 380.392C106.036 379.729 105.425 379.019 104.97 378.261L107.641 376.386C107.944 376.784 108.327 377.239 108.791 377.75C109.255 378.271 109.89 378.721 110.695 379.099C111.509 379.488 112.574 379.682 113.891 379.682C115.652 379.682 117.106 379.256 118.251 378.403C119.397 377.551 119.97 376.216 119.97 374.398V369.966H119.686C119.44 370.364 119.089 370.856 118.635 371.443C118.19 372.021 117.546 372.537 116.703 372.991C115.87 373.437 114.743 373.659 113.322 373.659C111.561 373.659 109.98 373.242 108.578 372.409C107.186 371.576 106.083 370.364 105.268 368.773C104.464 367.182 104.061 365.25 104.061 362.977C104.061 360.742 104.454 358.796 105.24 357.139C106.026 355.473 107.12 354.185 108.521 353.276C109.923 352.357 111.542 351.898 113.379 351.898C114.8 351.898 115.927 352.134 116.76 352.608C117.603 353.072 118.247 353.602 118.692 354.199C119.146 354.786 119.497 355.269 119.743 355.648H120.084V352.182H123.322V374.625C123.322 376.5 122.896 378.025 122.044 379.199C121.201 380.383 120.065 381.249 118.635 381.798C117.214 382.357 115.633 382.636 113.891 382.636ZM113.777 370.648C115.122 370.648 116.258 370.34 117.186 369.724C118.114 369.109 118.82 368.223 119.303 367.068C119.786 365.913 120.027 364.53 120.027 362.92C120.027 361.348 119.79 359.961 119.317 358.759C118.843 357.556 118.143 356.614 117.214 355.932C116.286 355.25 115.141 354.909 113.777 354.909C112.357 354.909 111.173 355.269 110.226 355.989C109.288 356.708 108.583 357.674 108.109 358.886C107.645 360.098 107.413 361.443 107.413 362.92C107.413 364.436 107.65 365.776 108.124 366.94C108.607 368.096 109.317 369.005 110.254 369.668C111.201 370.321 112.375 370.648 113.777 370.648ZM135.879 374.511C134.497 374.511 133.242 374.251 132.115 373.73C130.988 373.2 130.093 372.438 129.43 371.443C128.768 370.439 128.436 369.227 128.436 367.807C128.436 366.557 128.682 365.544 129.175 364.767C129.667 363.981 130.325 363.366 131.149 362.92C131.973 362.475 132.882 362.144 133.876 361.926C134.88 361.699 135.889 361.519 136.902 361.386C138.228 361.216 139.303 361.088 140.126 361.003C140.96 360.908 141.566 360.752 141.945 360.534C142.333 360.316 142.527 359.937 142.527 359.398V359.284C142.527 357.883 142.143 356.794 141.376 356.017C140.619 355.241 139.468 354.852 137.925 354.852C136.324 354.852 135.07 355.203 134.161 355.903C133.251 356.604 132.612 357.352 132.243 358.148L129.061 357.011C129.629 355.686 130.387 354.653 131.334 353.915C132.29 353.167 133.332 352.646 134.459 352.352C135.595 352.049 136.713 351.898 137.811 351.898C138.512 351.898 139.317 351.983 140.226 352.153C141.144 352.314 142.03 352.651 142.882 353.162C143.744 353.673 144.459 354.445 145.027 355.477C145.595 356.509 145.879 357.892 145.879 359.625V374H142.527V371.045H142.357C142.129 371.519 141.75 372.026 141.22 372.565C140.69 373.105 139.984 373.564 139.104 373.943C138.223 374.322 137.148 374.511 135.879 374.511ZM136.391 371.5C137.716 371.5 138.834 371.24 139.743 370.719C140.661 370.198 141.353 369.526 141.817 368.702C142.29 367.878 142.527 367.011 142.527 366.102V363.034C142.385 363.205 142.072 363.361 141.589 363.503C141.116 363.635 140.567 363.754 139.942 363.858C139.326 363.953 138.725 364.038 138.138 364.114C137.56 364.18 137.091 364.237 136.732 364.284C135.86 364.398 135.046 364.582 134.288 364.838C133.54 365.084 132.934 365.458 132.47 365.96C132.016 366.453 131.788 367.125 131.788 367.977C131.788 369.142 132.219 370.023 133.081 370.619C133.952 371.206 135.055 371.5 136.391 371.5ZM155.35 360.875V374H151.998V352.182H155.237V355.591H155.521C156.032 354.483 156.808 353.593 157.85 352.92C158.892 352.239 160.237 351.898 161.884 351.898C163.362 351.898 164.654 352.201 165.762 352.807C166.87 353.403 167.732 354.312 168.347 355.534C168.963 356.746 169.271 358.28 169.271 360.136V374H165.918V360.364C165.918 358.65 165.473 357.314 164.583 356.358C163.693 355.392 162.471 354.909 160.918 354.909C159.848 354.909 158.892 355.141 158.049 355.605C157.216 356.069 156.558 356.746 156.075 357.636C155.592 358.527 155.35 359.606 155.35 360.875ZM184.26 374.455C182.29 374.455 180.562 373.986 179.075 373.048C177.598 372.111 176.443 370.799 175.609 369.114C174.786 367.428 174.374 365.458 174.374 363.205C174.374 360.932 174.786 358.948 175.609 357.253C176.443 355.558 177.598 354.241 179.075 353.304C180.562 352.366 182.29 351.898 184.26 351.898C186.23 351.898 187.953 352.366 189.43 353.304C190.917 354.241 192.072 355.558 192.896 357.253C193.73 358.948 194.146 360.932 194.146 363.205C194.146 365.458 193.73 367.428 192.896 369.114C192.072 370.799 190.917 372.111 189.43 373.048C187.953 373.986 186.23 374.455 184.26 374.455ZM184.26 371.443C185.756 371.443 186.987 371.06 187.953 370.293C188.919 369.526 189.634 368.517 190.098 367.267C190.562 366.017 190.794 364.663 190.794 363.205C190.794 361.746 190.562 360.387 190.098 359.128C189.634 357.868 188.919 356.85 187.953 356.074C186.987 355.297 185.756 354.909 184.26 354.909C182.764 354.909 181.533 355.297 180.567 356.074C179.601 356.85 178.886 357.868 178.422 359.128C177.958 360.387 177.726 361.746 177.726 363.205C177.726 364.663 177.958 366.017 178.422 367.267C178.886 368.517 179.601 369.526 180.567 370.293C181.533 371.06 182.764 371.443 184.26 371.443ZM208.07 382.636C206.451 382.636 205.059 382.428 203.894 382.011C202.729 381.604 201.759 381.064 200.982 380.392C200.215 379.729 199.604 379.019 199.15 378.261L201.82 376.386C202.123 376.784 202.507 377.239 202.971 377.75C203.435 378.271 204.069 378.721 204.874 379.099C205.689 379.488 206.754 379.682 208.07 379.682C209.832 379.682 211.285 379.256 212.431 378.403C213.577 377.551 214.15 376.216 214.15 374.398V369.966H213.866C213.62 370.364 213.269 370.856 212.815 371.443C212.37 372.021 211.726 372.537 210.883 372.991C210.049 373.437 208.923 373.659 207.502 373.659C205.741 373.659 204.159 373.242 202.758 372.409C201.366 371.576 200.263 370.364 199.448 368.773C198.643 367.182 198.241 365.25 198.241 362.977C198.241 360.742 198.634 358.796 199.42 357.139C200.206 355.473 201.299 354.185 202.701 353.276C204.103 352.357 205.722 351.898 207.559 351.898C208.979 351.898 210.106 352.134 210.94 352.608C211.782 353.072 212.426 353.602 212.871 354.199C213.326 354.786 213.676 355.269 213.923 355.648H214.263V352.182H217.502V374.625C217.502 376.5 217.076 378.025 216.224 379.199C215.381 380.383 214.245 381.249 212.815 381.798C211.394 382.357 209.813 382.636 208.07 382.636ZM207.957 370.648C209.301 370.648 210.438 370.34 211.366 369.724C212.294 369.109 212.999 368.223 213.482 367.068C213.965 365.913 214.207 364.53 214.207 362.92C214.207 361.348 213.97 359.961 213.496 358.759C213.023 357.556 212.322 356.614 211.394 355.932C210.466 355.25 209.32 354.909 207.957 354.909C206.536 354.909 205.353 355.269 204.406 355.989C203.468 356.708 202.763 357.674 202.289 358.886C201.825 360.098 201.593 361.443 201.593 362.92C201.593 364.436 201.83 365.776 202.303 366.94C202.786 368.096 203.496 369.005 204.434 369.668C205.381 370.321 206.555 370.648 207.957 370.648ZM223.638 374V352.182H226.877V355.477H227.104C227.502 354.398 228.222 353.522 229.263 352.849C230.305 352.177 231.479 351.841 232.786 351.841C233.032 351.841 233.34 351.846 233.71 351.855C234.079 351.865 234.358 351.879 234.548 351.898V355.307C234.434 355.278 234.174 355.236 233.766 355.179C233.369 355.113 232.947 355.08 232.502 355.08C231.442 355.08 230.495 355.302 229.661 355.747C228.837 356.183 228.184 356.789 227.701 357.565C227.228 358.332 226.991 359.208 226.991 360.193V374H223.638ZM244.942 374.511C243.559 374.511 242.304 374.251 241.178 373.73C240.051 373.2 239.156 372.438 238.493 371.443C237.83 370.439 237.499 369.227 237.499 367.807C237.499 366.557 237.745 365.544 238.237 364.767C238.73 363.981 239.388 363.366 240.212 362.92C241.036 362.475 241.945 362.144 242.939 361.926C243.943 361.699 244.951 361.519 245.964 361.386C247.29 361.216 248.365 361.088 249.189 361.003C250.022 360.908 250.628 360.752 251.007 360.534C251.395 360.316 251.589 359.937 251.589 359.398V359.284C251.589 357.883 251.206 356.794 250.439 356.017C249.681 355.241 248.531 354.852 246.987 354.852C245.387 354.852 244.132 355.203 243.223 355.903C242.314 356.604 241.675 357.352 241.305 358.148L238.124 357.011C238.692 355.686 239.449 354.653 240.396 353.915C241.353 353.167 242.394 352.646 243.521 352.352C244.658 352.049 245.775 351.898 246.874 351.898C247.574 351.898 248.379 351.983 249.288 352.153C250.207 352.314 251.092 352.651 251.945 353.162C252.806 353.673 253.521 354.445 254.089 355.477C254.658 356.509 254.942 357.892 254.942 359.625V374H251.589V371.045H251.419C251.192 371.519 250.813 372.026 250.283 372.565C249.752 373.105 249.047 373.564 248.166 373.943C247.286 374.322 246.211 374.511 244.942 374.511ZM245.453 371.5C246.779 371.5 247.896 371.24 248.805 370.719C249.724 370.198 250.415 369.526 250.879 368.702C251.353 367.878 251.589 367.011 251.589 366.102V363.034C251.447 363.205 251.135 363.361 250.652 363.503C250.179 363.635 249.629 363.754 249.004 363.858C248.389 363.953 247.787 364.038 247.2 364.114C246.623 364.18 246.154 364.237 245.794 364.284C244.923 364.398 244.108 364.582 243.351 364.838C242.603 365.084 241.997 365.458 241.533 365.96C241.078 366.453 240.851 367.125 240.851 367.977C240.851 369.142 241.282 370.023 242.143 370.619C243.015 371.206 244.118 371.5 245.453 371.5ZM261.06 374V352.182H264.299V355.591H264.583C265.038 354.426 265.772 353.522 266.785 352.878C267.798 352.224 269.015 351.898 270.435 351.898C271.875 351.898 273.073 352.224 274.029 352.878C274.995 353.522 275.748 354.426 276.288 355.591H276.515C277.074 354.464 277.912 353.569 279.029 352.906C280.147 352.234 281.487 351.898 283.049 351.898C285 351.898 286.595 352.509 287.836 353.73C289.076 354.942 289.697 356.831 289.697 359.398V374H286.344V359.398C286.344 357.788 285.904 356.637 285.023 355.946C284.143 355.255 283.106 354.909 281.913 354.909C280.379 354.909 279.19 355.373 278.347 356.301C277.504 357.22 277.083 358.384 277.083 359.795V374H273.674V359.057C273.674 357.816 273.272 356.817 272.467 356.06C271.662 355.293 270.625 354.909 269.356 354.909C268.485 354.909 267.67 355.141 266.913 355.605C266.165 356.069 265.558 356.713 265.094 357.537C264.64 358.351 264.413 359.294 264.413 360.364V374H261.06ZM302.246 374.511C300.864 374.511 299.609 374.251 298.482 373.73C297.355 373.2 296.46 372.438 295.798 371.443C295.135 370.439 294.803 369.227 294.803 367.807C294.803 366.557 295.049 365.544 295.542 364.767C296.034 363.981 296.692 363.366 297.516 362.92C298.34 362.475 299.249 362.144 300.244 361.926C301.247 361.699 302.256 361.519 303.269 361.386C304.595 361.216 305.67 361.088 306.494 361.003C307.327 360.908 307.933 360.752 308.312 360.534C308.7 360.316 308.894 359.937 308.894 359.398V359.284C308.894 357.883 308.511 356.794 307.744 356.017C306.986 355.241 305.835 354.852 304.292 354.852C302.692 354.852 301.437 355.203 300.528 355.903C299.619 356.604 298.979 357.352 298.61 358.148L295.428 357.011C295.996 355.686 296.754 354.653 297.701 353.915C298.657 353.167 299.699 352.646 300.826 352.352C301.962 352.049 303.08 351.898 304.178 351.898C304.879 351.898 305.684 351.983 306.593 352.153C307.512 352.314 308.397 352.651 309.249 353.162C310.111 353.673 310.826 354.445 311.394 355.477C311.962 356.509 312.246 357.892 312.246 359.625V374H308.894V371.045H308.724C308.496 371.519 308.118 372.026 307.587 372.565C307.057 373.105 306.352 373.564 305.471 373.943C304.59 374.322 303.515 374.511 302.246 374.511ZM302.758 371.5C304.084 371.5 305.201 371.24 306.11 370.719C307.029 370.198 307.72 369.526 308.184 368.702C308.657 367.878 308.894 367.011 308.894 366.102V363.034C308.752 363.205 308.44 363.361 307.957 363.503C307.483 363.635 306.934 363.754 306.309 363.858C305.693 363.953 305.092 364.038 304.505 364.114C303.927 364.18 303.459 364.237 303.099 364.284C302.228 364.398 301.413 364.582 300.656 364.838C299.907 365.084 299.301 365.458 298.837 365.96C298.383 366.453 298.156 367.125 298.156 367.977C298.156 369.142 298.586 370.023 299.448 370.619C300.319 371.206 301.423 371.5 302.758 371.5ZM337.854 374.455C336.036 374.455 334.43 373.995 333.038 373.077C331.646 372.149 330.557 370.842 329.771 369.156C328.985 367.461 328.592 365.458 328.592 363.148C328.592 360.856 328.985 358.867 329.771 357.182C330.557 355.496 331.651 354.194 333.053 353.276C334.454 352.357 336.073 351.898 337.911 351.898C339.331 351.898 340.453 352.134 341.277 352.608C342.11 353.072 342.745 353.602 343.18 354.199C343.625 354.786 343.971 355.269 344.217 355.648H344.501V344.909H347.854V374H344.615V370.648H344.217C343.971 371.045 343.621 371.547 343.166 372.153C342.712 372.75 342.063 373.285 341.22 373.759C340.377 374.223 339.255 374.455 337.854 374.455ZM338.308 371.443C339.653 371.443 340.789 371.093 341.717 370.392C342.645 369.682 343.351 368.702 343.834 367.452C344.317 366.192 344.558 364.739 344.558 363.091C344.558 361.462 344.321 360.037 343.848 358.815C343.375 357.584 342.674 356.628 341.746 355.946C340.818 355.255 339.672 354.909 338.308 354.909C336.888 354.909 335.704 355.274 334.757 356.003C333.82 356.723 333.114 357.703 332.641 358.943C332.177 360.174 331.945 361.557 331.945 363.091C331.945 364.644 332.181 366.055 332.655 367.324C333.138 368.583 333.848 369.587 334.786 370.335C335.732 371.074 336.907 371.443 338.308 371.443ZM363.607 374.455C361.504 374.455 359.691 373.991 358.166 373.062C356.651 372.125 355.482 370.818 354.658 369.142C353.843 367.456 353.436 365.496 353.436 363.261C353.436 361.027 353.843 359.057 354.658 357.352C355.482 355.638 356.627 354.303 358.095 353.347C359.572 352.381 361.296 351.898 363.266 351.898C364.402 351.898 365.524 352.087 366.632 352.466C367.74 352.845 368.749 353.46 369.658 354.312C370.567 355.155 371.291 356.273 371.831 357.665C372.371 359.057 372.641 360.771 372.641 362.807V364.227H355.822V361.33H369.232C369.232 360.098 368.985 359 368.493 358.034C368.01 357.068 367.319 356.306 366.419 355.747C365.529 355.188 364.478 354.909 363.266 354.909C361.93 354.909 360.775 355.241 359.8 355.903C358.834 356.557 358.09 357.409 357.57 358.46C357.049 359.511 356.788 360.638 356.788 361.841V363.773C356.788 365.42 357.072 366.817 357.641 367.963C358.218 369.099 359.018 369.966 360.041 370.562C361.064 371.15 362.252 371.443 363.607 371.443C364.487 371.443 365.283 371.32 365.993 371.074C366.713 370.818 367.333 370.439 367.854 369.938C368.375 369.426 368.777 368.792 369.061 368.034L372.3 368.943C371.959 370.042 371.386 371.008 370.581 371.841C369.776 372.665 368.782 373.309 367.598 373.773C366.414 374.227 365.084 374.455 363.607 374.455ZM155.412 400.182C155.242 398.742 154.551 397.625 153.338 396.83C152.126 396.034 150.64 395.636 148.878 395.636C147.59 395.636 146.463 395.845 145.498 396.261C144.541 396.678 143.793 397.251 143.253 397.98C142.723 398.709 142.458 399.538 142.458 400.466C142.458 401.242 142.642 401.91 143.012 402.469C143.391 403.018 143.873 403.477 144.461 403.847C145.048 404.206 145.663 404.505 146.307 404.741C146.951 404.969 147.543 405.153 148.083 405.295L151.037 406.091C151.795 406.29 152.638 406.564 153.566 406.915C154.503 407.265 155.398 407.743 156.25 408.349C157.112 408.946 157.822 409.713 158.381 410.651C158.94 411.588 159.219 412.739 159.219 414.102C159.219 415.674 158.807 417.095 157.983 418.364C157.169 419.633 155.976 420.641 154.404 421.389C152.841 422.137 150.943 422.511 148.708 422.511C146.624 422.511 144.82 422.175 143.296 421.503C141.781 420.83 140.587 419.893 139.716 418.69C138.855 417.488 138.367 416.091 138.253 414.5H141.89C141.984 415.598 142.354 416.508 142.998 417.227C143.651 417.937 144.475 418.468 145.469 418.818C146.473 419.159 147.552 419.33 148.708 419.33C150.052 419.33 151.26 419.112 152.33 418.676C153.4 418.231 154.248 417.616 154.873 416.83C155.498 416.034 155.81 415.106 155.81 414.045C155.81 413.08 155.54 412.294 155 411.688C154.461 411.081 153.75 410.589 152.87 410.21C151.989 409.831 151.037 409.5 150.015 409.216L146.435 408.193C144.162 407.54 142.363 406.607 141.037 405.395C139.712 404.183 139.049 402.597 139.049 400.636C139.049 399.008 139.489 397.587 140.37 396.375C141.26 395.153 142.453 394.206 143.949 393.534C145.455 392.852 147.136 392.511 148.992 392.511C150.867 392.511 152.533 392.848 153.992 393.52C155.45 394.183 156.605 395.092 157.458 396.247C158.319 397.402 158.774 398.714 158.821 400.182H155.412ZM178.306 413.08V400.182H181.659V422H178.306V418.307H178.079C177.568 419.415 176.772 420.357 175.693 421.134C174.613 421.901 173.25 422.284 171.602 422.284C170.238 422.284 169.026 421.986 167.966 421.389C166.905 420.783 166.072 419.874 165.466 418.662C164.859 417.44 164.556 415.902 164.556 414.045V400.182H167.909V413.818C167.909 415.409 168.354 416.678 169.244 417.625C170.144 418.572 171.289 419.045 172.681 419.045C173.515 419.045 174.362 418.832 175.224 418.406C176.095 417.98 176.824 417.327 177.412 416.446C178.008 415.565 178.306 414.443 178.306 413.08ZM196.662 422.455C194.617 422.455 192.855 421.972 191.378 421.006C189.901 420.04 188.765 418.709 187.969 417.014C187.174 415.319 186.776 413.383 186.776 411.205C186.776 408.989 187.183 407.033 187.998 405.338C188.821 403.634 189.967 402.303 191.435 401.347C192.912 400.381 194.636 399.898 196.605 399.898C198.14 399.898 199.522 400.182 200.753 400.75C201.984 401.318 202.993 402.114 203.779 403.136C204.565 404.159 205.052 405.352 205.242 406.716H201.89C201.634 405.722 201.066 404.841 200.185 404.074C199.314 403.297 198.14 402.909 196.662 402.909C195.355 402.909 194.21 403.25 193.225 403.932C192.249 404.604 191.487 405.556 190.938 406.787C190.398 408.009 190.128 409.443 190.128 411.091C190.128 412.777 190.393 414.244 190.924 415.494C191.463 416.744 192.221 417.715 193.196 418.406C194.181 419.098 195.337 419.443 196.662 419.443C197.533 419.443 198.324 419.292 199.034 418.989C199.745 418.686 200.346 418.25 200.838 417.682C201.331 417.114 201.681 416.432 201.89 415.636H205.242C205.052 416.924 204.584 418.084 203.836 419.116C203.097 420.139 202.117 420.954 200.895 421.56C199.683 422.156 198.272 422.455 196.662 422.455ZM219.29 422.455C217.188 422.455 215.374 421.991 213.85 421.062C212.335 420.125 211.165 418.818 210.341 417.142C209.527 415.456 209.12 413.496 209.12 411.261C209.12 409.027 209.527 407.057 210.341 405.352C211.165 403.638 212.311 402.303 213.779 401.347C215.256 400.381 216.98 399.898 218.949 399.898C220.086 399.898 221.208 400.087 222.316 400.466C223.424 400.845 224.432 401.46 225.341 402.312C226.25 403.155 226.975 404.273 227.515 405.665C228.054 407.057 228.324 408.771 228.324 410.807V412.227H211.506V409.33H224.915C224.915 408.098 224.669 407 224.176 406.034C223.694 405.068 223.002 404.306 222.103 403.747C221.212 403.188 220.161 402.909 218.949 402.909C217.614 402.909 216.459 403.241 215.483 403.903C214.517 404.557 213.774 405.409 213.253 406.46C212.732 407.511 212.472 408.638 212.472 409.841V411.773C212.472 413.42 212.756 414.817 213.324 415.963C213.902 417.099 214.702 417.966 215.725 418.562C216.748 419.15 217.936 419.443 219.29 419.443C220.171 419.443 220.966 419.32 221.676 419.074C222.396 418.818 223.016 418.439 223.537 417.938C224.058 417.426 224.461 416.792 224.745 416.034L227.983 416.943C227.642 418.042 227.069 419.008 226.265 419.841C225.46 420.665 224.465 421.309 223.282 421.773C222.098 422.227 220.767 422.455 219.29 422.455ZM248.878 405.068L245.867 405.92C245.677 405.419 245.398 404.931 245.029 404.457C244.669 403.974 244.176 403.577 243.551 403.264C242.926 402.952 242.126 402.795 241.151 402.795C239.816 402.795 238.703 403.103 237.813 403.719C236.932 404.325 236.492 405.097 236.492 406.034C236.492 406.867 236.795 407.526 237.401 408.009C238.007 408.491 238.954 408.894 240.242 409.216L243.48 410.011C245.431 410.485 246.885 411.209 247.841 412.185C248.798 413.151 249.276 414.396 249.276 415.92C249.276 417.17 248.916 418.288 248.196 419.273C247.486 420.258 246.492 421.034 245.213 421.602C243.935 422.17 242.448 422.455 240.753 422.455C238.528 422.455 236.686 421.972 235.228 421.006C233.769 420.04 232.846 418.629 232.458 416.773L235.64 415.977C235.943 417.152 236.516 418.032 237.358 418.619C238.211 419.206 239.323 419.5 240.696 419.5C242.259 419.5 243.499 419.169 244.418 418.506C245.346 417.833 245.81 417.028 245.81 416.091C245.81 415.333 245.545 414.699 245.015 414.188C244.484 413.667 243.67 413.278 242.571 413.023L238.935 412.17C236.937 411.697 235.469 410.963 234.532 409.969C233.604 408.965 233.14 407.71 233.14 406.205C233.14 404.973 233.485 403.884 234.176 402.938C234.877 401.991 235.829 401.247 237.032 400.707C238.244 400.168 239.617 399.898 241.151 399.898C243.31 399.898 245.005 400.371 246.236 401.318C247.477 402.265 248.357 403.515 248.878 405.068ZM269.777 405.068L266.765 405.92C266.576 405.419 266.297 404.931 265.927 404.457C265.567 403.974 265.075 403.577 264.45 403.264C263.825 402.952 263.025 402.795 262.049 402.795C260.714 402.795 259.601 403.103 258.711 403.719C257.831 404.325 257.39 405.097 257.39 406.034C257.39 406.867 257.693 407.526 258.299 408.009C258.905 408.491 259.852 408.894 261.14 409.216L264.379 410.011C266.33 410.485 267.783 411.209 268.74 412.185C269.696 413.151 270.174 414.396 270.174 415.92C270.174 417.17 269.815 418.288 269.095 419.273C268.385 420.258 267.39 421.034 266.112 421.602C264.833 422.17 263.347 422.455 261.652 422.455C259.426 422.455 257.584 421.972 256.126 421.006C254.668 420.04 253.744 418.629 253.356 416.773L256.538 415.977C256.841 417.152 257.414 418.032 258.257 418.619C259.109 419.206 260.222 419.5 261.595 419.5C263.157 419.5 264.398 419.169 265.316 418.506C266.244 417.833 266.708 417.028 266.708 416.091C266.708 415.333 266.443 414.699 265.913 414.188C265.383 413.667 264.568 413.278 263.47 413.023L259.833 412.17C257.835 411.697 256.368 410.963 255.43 409.969C254.502 408.965 254.038 407.71 254.038 406.205C254.038 404.973 254.384 403.884 255.075 402.938C255.776 401.991 256.727 401.247 257.93 400.707C259.142 400.168 260.515 399.898 262.049 399.898C264.208 399.898 265.904 400.371 267.135 401.318C268.375 402.265 269.256 403.515 269.777 405.068ZM284.084 422.455C282.114 422.455 280.386 421.986 278.9 421.048C277.422 420.111 276.267 418.799 275.434 417.114C274.61 415.428 274.198 413.458 274.198 411.205C274.198 408.932 274.61 406.948 275.434 405.253C276.267 403.558 277.422 402.241 278.9 401.304C280.386 400.366 282.114 399.898 284.084 399.898C286.054 399.898 287.777 400.366 289.255 401.304C290.741 402.241 291.897 403.558 292.721 405.253C293.554 406.948 293.971 408.932 293.971 411.205C293.971 413.458 293.554 415.428 292.721 417.114C291.897 418.799 290.741 420.111 289.255 421.048C287.777 421.986 286.054 422.455 284.084 422.455ZM284.084 419.443C285.58 419.443 286.811 419.06 287.777 418.293C288.743 417.526 289.458 416.517 289.922 415.267C290.386 414.017 290.618 412.663 290.618 411.205C290.618 409.746 290.386 408.387 289.922 407.128C289.458 405.868 288.743 404.85 287.777 404.074C286.811 403.297 285.58 402.909 284.084 402.909C282.588 402.909 281.357 403.297 280.391 404.074C279.425 404.85 278.71 405.868 278.246 407.128C277.782 408.387 277.55 409.746 277.55 411.205C277.55 412.663 277.782 414.017 278.246 415.267C278.71 416.517 279.425 417.526 280.391 418.293C281.357 419.06 282.588 419.443 284.084 419.443Z" fill="black"/>
<path d="M197.44 277H156.26C153.907 277 152 275.093 152 272.74V245.76C152 243.407 153.907 241.5 156.26 241.5H197.44C199.793 241.5 201.7 243.407 201.7 245.76V272.74C201.7 275.093 199.793 277 197.44 277Z" stroke="black" stroke-width="5"/>
<path d="M236.49 170.5H195.31C192.957 170.5 191.05 168.593 191.05 166.24V139.26C191.05 136.907 192.957 135 195.31 135H236.49C238.843 135 240.75 136.907 240.75 139.26V166.24C240.75 168.593 238.843 170.5 236.49 170.5Z" stroke="black" stroke-width="5"/>
<path d="M275.54 277H234.36C232.007 277 230.1 275.093 230.1 272.74V245.76C230.1 243.407 232.007 241.5 234.36 241.5H275.54C277.893 241.5 279.8 243.407 279.8 245.76V272.74C279.8 275.093 277.893 277 275.54 277Z" stroke="black" stroke-width="5"/>
<path d="M176.85 241.5V216.65C176.85 208.807 183.208 202.45 191.05 202.45H240.75C248.593 202.45 254.95 208.807 254.95 216.65V241.5" stroke="black" stroke-width="5"/>
<path d="M215.9 202.45V170.5" stroke="black" stroke-width="5"/>
</svg>
