<svg width="432" height="432" viewBox="0 0 432 432" fill="none" xmlns="http://www.w3.org/2000/svg">
<path d="M216 0L403.061 324H28.9385L216 0Z" fill="#EE6C4D"/>
<path d="M215.5 48L360.559 299.25H70.4408L215.5 48Z" fill="white"/>
<path d="M96.5813 374V344.909H100.104V357.864H115.615V344.909H119.138V374H115.615V360.989H100.104V374H96.5813ZM132.157 374.511C130.774 374.511 129.519 374.251 128.392 373.73C127.266 373.2 126.371 372.438 125.708 371.443C125.045 370.439 124.713 369.227 124.713 367.807C124.713 366.557 124.96 365.544 125.452 364.767C125.944 363.981 126.603 363.366 127.426 362.92C128.25 362.475 129.159 362.144 130.154 361.926C131.158 361.699 132.166 361.519 133.179 361.386C134.505 361.216 135.58 361.088 136.404 361.003C137.237 360.908 137.843 360.752 138.222 360.534C138.61 360.316 138.804 359.937 138.804 359.398V359.284C138.804 357.883 138.421 356.794 137.654 356.017C136.896 355.241 135.746 354.852 134.202 354.852C132.602 354.852 131.347 355.203 130.438 355.903C129.529 356.604 128.89 357.352 128.52 358.148L125.338 357.011C125.907 355.686 126.664 354.653 127.611 353.915C128.568 353.167 129.609 352.646 130.736 352.352C131.873 352.049 132.99 351.898 134.088 351.898C134.789 351.898 135.594 351.983 136.503 352.153C137.422 352.314 138.307 352.651 139.159 353.162C140.021 353.673 140.736 354.445 141.304 355.477C141.873 356.509 142.157 357.892 142.157 359.625V374H138.804V371.045H138.634C138.407 371.519 138.028 372.026 137.498 372.565C136.967 373.105 136.262 373.564 135.381 373.943C134.5 374.322 133.426 374.511 132.157 374.511ZM132.668 371.5C133.994 371.5 135.111 371.24 136.02 370.719C136.939 370.198 137.63 369.526 138.094 368.702C138.568 367.878 138.804 367.011 138.804 366.102V363.034C138.662 363.205 138.35 363.361 137.867 363.503C137.393 363.635 136.844 363.754 136.219 363.858C135.604 363.953 135.002 364.038 134.415 364.114C133.837 364.18 133.369 364.237 133.009 364.284C132.138 364.398 131.323 364.582 130.566 364.838C129.818 365.084 129.212 365.458 128.748 365.96C128.293 366.453 128.066 367.125 128.066 367.977C128.066 369.142 128.497 370.023 129.358 370.619C130.23 371.206 131.333 371.5 132.668 371.5ZM148.275 374V352.182H151.514V355.477H151.741C152.139 354.398 152.859 353.522 153.9 352.849C154.942 352.177 156.116 351.841 157.423 351.841C157.669 351.841 157.977 351.846 158.346 351.855C158.716 351.865 158.995 351.879 159.184 351.898V355.307C159.071 355.278 158.81 355.236 158.403 355.179C158.005 355.113 157.584 355.08 157.139 355.08C156.078 355.08 155.131 355.302 154.298 355.747C153.474 356.183 152.821 356.789 152.338 357.565C151.864 358.332 151.627 359.208 151.627 360.193V374H148.275ZM170.733 374.455C168.914 374.455 167.309 373.995 165.917 373.077C164.525 372.149 163.436 370.842 162.65 369.156C161.864 367.461 161.471 365.458 161.471 363.148C161.471 360.856 161.864 358.867 162.65 357.182C163.436 355.496 164.53 354.194 165.931 353.276C167.333 352.357 168.952 351.898 170.789 351.898C172.21 351.898 173.332 352.134 174.156 352.608C174.989 353.072 175.624 353.602 176.059 354.199C176.504 354.786 176.85 355.269 177.096 355.648H177.38V344.909H180.733V374H177.494V370.648H177.096C176.85 371.045 176.5 371.547 176.045 372.153C175.591 372.75 174.942 373.285 174.099 373.759C173.256 374.223 172.134 374.455 170.733 374.455ZM171.187 371.443C172.532 371.443 173.668 371.093 174.596 370.392C175.524 369.682 176.23 368.702 176.713 367.452C177.196 366.192 177.437 364.739 177.437 363.091C177.437 361.462 177.2 360.037 176.727 358.815C176.253 357.584 175.553 356.628 174.625 355.946C173.697 355.255 172.551 354.909 171.187 354.909C169.767 354.909 168.583 355.274 167.636 356.003C166.699 356.723 165.993 357.703 165.52 358.943C165.056 360.174 164.824 361.557 164.824 363.091C164.824 364.644 165.06 366.055 165.534 367.324C166.017 368.583 166.727 369.587 167.664 370.335C168.611 371.074 169.786 371.443 171.187 371.443ZM214.951 352.182C214.781 350.742 214.09 349.625 212.877 348.83C211.665 348.034 210.179 347.636 208.417 347.636C207.129 347.636 206.002 347.845 205.037 348.261C204.08 348.678 203.332 349.251 202.792 349.98C202.262 350.709 201.997 351.538 201.997 352.466C201.997 353.242 202.181 353.91 202.551 354.469C202.93 355.018 203.413 355.477 204 355.847C204.587 356.206 205.202 356.505 205.846 356.741C206.49 356.969 207.082 357.153 207.622 357.295L210.576 358.091C211.334 358.29 212.177 358.564 213.105 358.915C214.042 359.265 214.937 359.743 215.789 360.349C216.651 360.946 217.361 361.713 217.92 362.651C218.479 363.588 218.758 364.739 218.758 366.102C218.758 367.674 218.346 369.095 217.522 370.364C216.708 371.633 215.515 372.641 213.943 373.389C212.38 374.137 210.482 374.511 208.247 374.511C206.163 374.511 204.359 374.175 202.835 373.503C201.32 372.83 200.127 371.893 199.255 370.69C198.394 369.488 197.906 368.091 197.792 366.5H201.429C201.523 367.598 201.893 368.508 202.537 369.227C203.19 369.937 204.014 370.468 205.008 370.818C206.012 371.159 207.092 371.33 208.247 371.33C209.592 371.33 210.799 371.112 211.869 370.676C212.939 370.231 213.787 369.616 214.412 368.83C215.037 368.034 215.349 367.106 215.349 366.045C215.349 365.08 215.079 364.294 214.539 363.688C214 363.081 213.289 362.589 212.409 362.21C211.528 361.831 210.576 361.5 209.554 361.216L205.974 360.193C203.701 359.54 201.902 358.607 200.576 357.395C199.251 356.183 198.588 354.597 198.588 352.636C198.588 351.008 199.028 349.587 199.909 348.375C200.799 347.153 201.992 346.206 203.488 345.534C204.994 344.852 206.675 344.511 208.531 344.511C210.406 344.511 212.073 344.848 213.531 345.52C214.989 346.183 216.145 347.092 216.997 348.247C217.859 349.402 218.313 350.714 218.36 352.182H214.951ZM227.221 366.045L227.164 361.898H227.846L237.391 352.182H241.539L231.368 362.466H231.084L227.221 366.045ZM224.096 374V344.909H227.448V374H224.096ZM237.959 374L229.436 363.205L231.823 360.875L242.221 374H237.959ZM245.853 374V352.182H249.206V374H245.853ZM247.558 348.545C246.904 348.545 246.341 348.323 245.868 347.878C245.404 347.433 245.172 346.898 245.172 346.273C245.172 345.648 245.404 345.113 245.868 344.668C246.341 344.223 246.904 344 247.558 344C248.211 344 248.77 344.223 249.234 344.668C249.708 345.113 249.944 345.648 249.944 346.273C249.944 346.898 249.708 347.433 249.234 347.878C248.77 348.323 248.211 348.545 247.558 348.545ZM258.698 344.909V374H255.346V344.909H258.698ZM268.19 344.909V374H264.838V344.909H268.19ZM289.784 357.068L286.773 357.92C286.584 357.419 286.304 356.931 285.935 356.457C285.575 355.974 285.083 355.577 284.458 355.264C283.833 354.952 283.033 354.795 282.057 354.795C280.722 354.795 279.609 355.103 278.719 355.719C277.838 356.325 277.398 357.097 277.398 358.034C277.398 358.867 277.701 359.526 278.307 360.009C278.913 360.491 279.86 360.894 281.148 361.216L284.387 362.011C286.337 362.485 287.791 363.209 288.748 364.185C289.704 365.151 290.182 366.396 290.182 367.92C290.182 369.17 289.822 370.288 289.103 371.273C288.392 372.258 287.398 373.034 286.12 373.602C284.841 374.17 283.355 374.455 281.659 374.455C279.434 374.455 277.592 373.972 276.134 373.006C274.676 372.04 273.752 370.629 273.364 368.773L276.546 367.977C276.849 369.152 277.422 370.032 278.265 370.619C279.117 371.206 280.23 371.5 281.603 371.5C283.165 371.5 284.406 371.169 285.324 370.506C286.252 369.833 286.716 369.028 286.716 368.091C286.716 367.333 286.451 366.699 285.921 366.188C285.391 365.667 284.576 365.278 283.478 365.023L279.841 364.17C277.843 363.697 276.375 362.963 275.438 361.969C274.51 360.965 274.046 359.71 274.046 358.205C274.046 356.973 274.391 355.884 275.083 354.938C275.783 353.991 276.735 353.247 277.938 352.707C279.15 352.168 280.523 351.898 282.057 351.898C284.216 351.898 285.911 352.371 287.142 353.318C288.383 354.265 289.264 355.515 289.784 357.068ZM315.626 374.455C313.524 374.455 311.71 373.991 310.186 373.062C308.671 372.125 307.501 370.818 306.677 369.142C305.863 367.456 305.456 365.496 305.456 363.261C305.456 361.027 305.863 359.057 306.677 357.352C307.501 355.638 308.647 354.303 310.115 353.347C311.592 352.381 313.315 351.898 315.285 351.898C316.422 351.898 317.544 352.087 318.652 352.466C319.76 352.845 320.768 353.46 321.677 354.312C322.586 355.155 323.311 356.273 323.85 357.665C324.39 359.057 324.66 360.771 324.66 362.807V364.227H307.842V361.33H321.251C321.251 360.098 321.005 359 320.512 358.034C320.029 357.068 319.338 356.306 318.439 355.747C317.548 355.188 316.497 354.909 315.285 354.909C313.95 354.909 312.795 355.241 311.819 355.903C310.853 356.557 310.11 357.409 309.589 358.46C309.068 359.511 308.808 360.638 308.808 361.841V363.773C308.808 365.42 309.092 366.817 309.66 367.963C310.238 369.099 311.038 369.966 312.061 370.562C313.083 371.15 314.272 371.443 315.626 371.443C316.507 371.443 317.302 371.32 318.012 371.074C318.732 370.818 319.352 370.439 319.873 369.938C320.394 369.426 320.797 368.792 321.081 368.034L324.319 368.943C323.978 370.042 323.405 371.008 322.6 371.841C321.796 372.665 320.801 373.309 319.618 373.773C318.434 374.227 317.103 374.455 315.626 374.455ZM141.826 400.182C141.656 398.742 140.965 397.625 139.752 396.83C138.54 396.034 137.054 395.636 135.292 395.636C134.004 395.636 132.877 395.845 131.912 396.261C130.955 396.678 130.207 397.251 129.667 397.98C129.137 398.709 128.872 399.538 128.872 400.466C128.872 401.242 129.056 401.91 129.426 402.469C129.805 403.018 130.288 403.477 130.875 403.847C131.462 404.206 132.077 404.505 132.721 404.741C133.365 404.969 133.957 405.153 134.497 405.295L137.451 406.091C138.209 406.29 139.052 406.564 139.98 406.915C140.917 407.265 141.812 407.743 142.664 408.349C143.526 408.946 144.236 409.713 144.795 410.651C145.354 411.588 145.633 412.739 145.633 414.102C145.633 415.674 145.221 417.095 144.397 418.364C143.583 419.633 142.39 420.641 140.818 421.389C139.255 422.137 137.357 422.511 135.122 422.511C133.038 422.511 131.234 422.175 129.71 421.503C128.195 420.83 127.002 419.893 126.13 418.69C125.269 417.488 124.781 416.091 124.667 414.5H128.304C128.398 415.598 128.768 416.508 129.412 417.227C130.065 417.937 130.889 418.468 131.883 418.818C132.887 419.159 133.967 419.33 135.122 419.33C136.467 419.33 137.674 419.112 138.744 418.676C139.814 418.231 140.662 417.616 141.287 416.83C141.912 416.034 142.224 415.106 142.224 414.045C142.224 413.08 141.954 412.294 141.414 411.688C140.875 411.081 140.164 410.589 139.284 410.21C138.403 409.831 137.451 409.5 136.429 409.216L132.849 408.193C130.576 407.54 128.777 406.607 127.451 405.395C126.126 404.183 125.463 402.597 125.463 400.636C125.463 399.008 125.903 397.587 126.784 396.375C127.674 395.153 128.867 394.206 130.363 393.534C131.869 392.852 133.55 392.511 135.406 392.511C137.281 392.511 138.948 392.848 140.406 393.52C141.864 394.183 143.02 395.092 143.872 396.247C144.734 397.402 145.188 398.714 145.235 400.182H141.826ZM159.834 422.455C157.864 422.455 156.136 421.986 154.65 421.048C153.172 420.111 152.017 418.799 151.184 417.114C150.36 415.428 149.948 413.458 149.948 411.205C149.948 408.932 150.36 406.948 151.184 405.253C152.017 403.558 153.172 402.241 154.65 401.304C156.136 400.366 157.864 399.898 159.834 399.898C161.804 399.898 163.527 400.366 165.005 401.304C166.491 402.241 167.647 403.558 168.471 405.253C169.304 406.948 169.721 408.932 169.721 411.205C169.721 413.458 169.304 415.428 168.471 417.114C167.647 418.799 166.491 420.111 165.005 421.048C163.527 421.986 161.804 422.455 159.834 422.455ZM159.834 419.443C161.33 419.443 162.561 419.06 163.527 418.293C164.493 417.526 165.208 416.517 165.672 415.267C166.136 414.017 166.368 412.663 166.368 411.205C166.368 409.746 166.136 408.387 165.672 407.128C165.208 405.868 164.493 404.85 163.527 404.074C162.561 403.297 161.33 402.909 159.834 402.909C158.338 402.909 157.107 403.297 156.141 404.074C155.175 404.85 154.46 405.868 153.996 407.128C153.532 408.387 153.3 409.746 153.3 411.205C153.3 412.663 153.532 414.017 153.996 415.267C154.46 416.517 155.175 417.526 156.141 418.293C157.107 419.06 158.338 419.443 159.834 419.443ZM184.554 400.182V403.023H172.792V400.182H184.554ZM176.315 422V397.17C176.315 395.92 176.609 394.879 177.196 394.045C177.783 393.212 178.545 392.587 179.483 392.17C180.42 391.754 181.41 391.545 182.451 391.545C183.275 391.545 183.948 391.612 184.468 391.744C184.989 391.877 185.377 392 185.633 392.114L184.667 395.011C184.497 394.955 184.26 394.884 183.957 394.798C183.663 394.713 183.275 394.67 182.792 394.67C181.684 394.67 180.884 394.95 180.392 395.509C179.909 396.067 179.667 396.886 179.667 397.966V422H176.315ZM198.74 400.182V403.023H187.434V400.182H198.74ZM190.729 394.955H194.081V415.75C194.081 416.697 194.219 417.407 194.493 417.881C194.777 418.345 195.137 418.657 195.573 418.818C196.018 418.97 196.487 419.045 196.979 419.045C197.348 419.045 197.651 419.027 197.888 418.989C198.125 418.941 198.314 418.903 198.456 418.875L199.138 421.886C198.911 421.972 198.594 422.057 198.186 422.142C197.779 422.237 197.263 422.284 196.638 422.284C195.691 422.284 194.763 422.08 193.854 421.673C192.954 421.266 192.206 420.646 191.61 419.812C191.023 418.979 190.729 417.928 190.729 416.659V394.955ZM231.397 400.182C231.226 398.742 230.535 397.625 229.323 396.83C228.111 396.034 226.624 395.636 224.863 395.636C223.575 395.636 222.448 395.845 221.482 396.261C220.525 396.678 219.777 397.251 219.238 397.98C218.707 398.709 218.442 399.538 218.442 400.466C218.442 401.242 218.627 401.91 218.996 402.469C219.375 403.018 219.858 403.477 220.445 403.847C221.032 404.206 221.648 404.505 222.292 404.741C222.935 404.969 223.527 405.153 224.067 405.295L227.022 406.091C227.779 406.29 228.622 406.564 229.55 406.915C230.488 407.265 231.382 407.743 232.235 408.349C233.096 408.946 233.807 409.713 234.365 410.651C234.924 411.588 235.203 412.739 235.203 414.102C235.203 415.674 234.792 417.095 233.968 418.364C233.153 419.633 231.96 420.641 230.388 421.389C228.826 422.137 226.927 422.511 224.692 422.511C222.609 422.511 220.805 422.175 219.28 421.503C217.765 420.83 216.572 419.893 215.701 418.69C214.839 417.488 214.351 416.091 214.238 414.5H217.874C217.969 415.598 218.338 416.508 218.982 417.227C219.635 417.937 220.459 418.468 221.453 418.818C222.457 419.159 223.537 419.33 224.692 419.33C226.037 419.33 227.244 419.112 228.314 418.676C229.384 418.231 230.232 417.616 230.857 416.83C231.482 416.034 231.794 415.106 231.794 414.045C231.794 413.08 231.525 412.294 230.985 411.688C230.445 411.081 229.735 410.589 228.854 410.21C227.973 409.831 227.022 409.5 225.999 409.216L222.419 408.193C220.147 407.54 218.347 406.607 217.022 405.395C215.696 404.183 215.033 402.597 215.033 400.636C215.033 399.008 215.473 397.587 216.354 396.375C217.244 395.153 218.437 394.206 219.934 393.534C221.439 392.852 223.12 392.511 224.976 392.511C226.851 392.511 228.518 392.848 229.976 393.52C231.435 394.183 232.59 395.092 233.442 396.247C234.304 397.402 234.758 398.714 234.806 400.182H231.397ZM243.666 414.045L243.609 409.898H244.291L253.836 400.182H257.984L247.814 410.466H247.529L243.666 414.045ZM240.541 422V392.909H243.893V422H240.541ZM254.404 422L245.882 411.205L248.268 408.875L258.666 422H254.404ZM262.299 422V400.182H265.651V422H262.299ZM264.003 396.545C263.35 396.545 262.786 396.323 262.313 395.878C261.849 395.433 261.617 394.898 261.617 394.273C261.617 393.648 261.849 393.113 262.313 392.668C262.786 392.223 263.35 392 264.003 392C264.657 392 265.215 392.223 265.679 392.668C266.153 393.113 266.39 393.648 266.39 394.273C266.39 394.898 266.153 395.433 265.679 395.878C265.215 396.323 264.657 396.545 264.003 396.545ZM275.143 392.909V422H271.791V392.909H275.143ZM284.635 392.909V422H281.283V392.909H284.635ZM306.23 405.068L303.218 405.92C303.029 405.419 302.75 404.931 302.38 404.457C302.02 403.974 301.528 403.577 300.903 403.264C300.278 402.952 299.478 402.795 298.502 402.795C297.167 402.795 296.055 403.103 295.164 403.719C294.284 404.325 293.843 405.097 293.843 406.034C293.843 406.867 294.146 407.526 294.752 408.009C295.359 408.491 296.306 408.894 297.593 409.216L300.832 410.011C302.783 410.485 304.236 411.209 305.193 412.185C306.149 413.151 306.627 414.396 306.627 415.92C306.627 417.17 306.268 418.288 305.548 419.273C304.838 420.258 303.843 421.034 302.565 421.602C301.287 422.17 299.8 422.455 298.105 422.455C295.879 422.455 294.038 421.972 292.579 421.006C291.121 420.04 290.198 418.629 289.809 416.773L292.991 415.977C293.294 417.152 293.867 418.032 294.71 418.619C295.562 419.206 296.675 419.5 298.048 419.5C299.61 419.5 300.851 419.169 301.77 418.506C302.698 417.833 303.162 417.028 303.162 416.091C303.162 415.333 302.896 414.699 302.366 414.188C301.836 413.667 301.021 413.278 299.923 413.023L296.287 412.17C294.288 411.697 292.821 410.963 291.883 409.969C290.955 408.965 290.491 407.71 290.491 406.205C290.491 404.973 290.837 403.884 291.528 402.938C292.229 401.991 293.181 401.247 294.383 400.707C295.595 400.168 296.968 399.898 298.502 399.898C300.662 399.898 302.357 400.371 303.588 401.318C304.828 402.265 305.709 403.515 306.23 405.068Z" fill="black"/>
<path d="M209.288 209.582L163.771 255.099C158.743 260.126 158.743 268.278 163.771 273.306C168.798 278.334 176.95 278.334 181.978 273.306L227.494 227.789" stroke="black" stroke-width="5" stroke-linecap="round" stroke-linejoin="round"/>
<path d="M255.264 230.135L280.229 255.099C285.257 260.127 285.257 268.279 280.229 273.306C275.202 278.334 267.05 278.334 262.022 273.306L222.058 233.342" stroke="black" stroke-width="5" stroke-linecap="round" stroke-linejoin="round"/>
<path d="M187.932 179.31L174.277 183.862L160.622 161.103L169.725 152L192.484 165.655L187.932 179.31ZM187.932 179.31L206.15 197.529" stroke="black" stroke-width="5" stroke-linecap="round" stroke-linejoin="round"/>
<path d="M209.288 209.583C203.856 195.724 204.918 177.539 216.116 166.342C227.313 155.144 247.977 152.687 259.357 159.514L239.784 179.087L237.964 199.113L257.99 197.294L277.563 177.721C284.391 189.1 281.934 209.765 270.736 220.962C259.538 232.16 241.354 233.222 227.495 227.79" stroke="black" stroke-width="5" stroke-linecap="round" stroke-linejoin="round"/>
</svg>
