<svg width="102" height="125" viewBox="0 0 102 125" fill="none" xmlns="http://www.w3.org/2000/svg">
<path d="M99.3053 100.155C99.3053 102.297 98.9195 104.498 98.0997 106.64C97.2799 108.782 96.2189 110.805 94.8204 112.709C92.4574 115.922 89.8532 118.242 86.9115 119.729C84.018 121.217 80.8834 121.99 77.5076 121.99C72.5887 121.99 67.3322 120.562 61.7863 117.647C56.2404 114.732 50.6945 110.805 45.1969 105.867C39.651 100.869 34.3945 95.3362 29.3791 89.2083C24.4119 83.0208 19.927 76.5358 15.9243 69.7534C11.9699 62.971 8.787 56.1885 6.4722 49.4656C4.1574 42.6832 3 36.1982 3 30.0107C3 25.9651 3.5787 22.0979 4.7361 18.5282C5.8935 14.899 7.72605 11.5673 10.282 8.59253C13.3684 4.84435 16.7441 3 20.3128 3C21.6631 3 23.0134 3.35697 24.219 4.07091C25.4729 4.78485 26.582 5.85576 27.4501 7.40263L38.6383 26.8575C39.5063 28.3449 40.1333 29.7133 40.5673 31.0221C41.0013 32.2715 41.2424 33.5209 41.2424 34.6513C41.2424 36.0792 40.9049 37.5071 40.2297 38.8755C39.6028 40.2439 38.6865 41.6717 37.5291 43.0996L33.864 47.7997C33.3335 48.4542 33.0924 49.2276 33.0924 50.1795C33.0924 50.6555 33.1406 51.072 33.2371 51.5479C33.3818 52.0239 33.5264 52.3808 33.6229 52.7378C34.4909 54.7012 35.9859 57.2594 38.1078 60.3532C40.2779 63.4469 42.5927 66.6002 45.1004 69.7534C47.7046 72.9066 50.2123 75.8219 52.7682 78.4992C55.2759 81.1169 57.3496 82.9018 58.9892 83.9727C59.2304 84.0917 59.5197 84.2702 59.8573 84.4487C60.2431 84.6271 60.6289 84.6866 61.0629 84.6866C61.8827 84.6866 62.5097 84.3297 63.0401 83.6752L66.7052 79.2131C67.9109 77.7257 69.0683 76.5953 70.1774 75.8814C71.2866 75.0484 72.3958 74.632 73.6014 74.632C74.5177 74.632 75.4822 74.87 76.5431 75.4054C77.6041 75.9409 78.7133 76.7143 79.9189 77.7257L95.8814 91.707C97.1352 92.778 98.0033 94.0273 98.5337 95.5147C99.016 97.0021 99.3053 98.4895 99.3053 100.155Z" stroke="#292D32" stroke-width="5" stroke-miterlimit="10"/>
<path d="M82.5713 44.6465C82.5713 41.0768 80.3047 35.6033 76.9289 31.1411C73.8425 27.036 69.7434 23.8232 65.6925 23.8232" stroke="#292D32" stroke-width="5" stroke-linecap="round" stroke-linejoin="round"/>
<path d="M99.45 44.6465C99.45 21.6219 84.3556 3 65.6925 3" stroke="#292D32" stroke-width="5" stroke-linecap="round" stroke-linejoin="round"/>
</svg>
