<svg width="107" height="95" viewBox="0 0 107 95" fill="none" xmlns="http://www.w3.org/2000/svg">
<path d="M70.6033 94.2019C68.4517 94.2019 66.3001 93.7516 64.5488 92.9009L38.2788 79.741C36.7777 78.9905 33.8254 79.0405 32.3744 79.8912L20.5655 86.6462C15.4616 89.5484 10.2077 89.9487 6.25471 87.597C2.25169 85.2952 0 80.5917 0 74.6872V26.0505C0 21.497 3.00226 16.3432 6.95523 14.0915L28.6215 1.68212C32.2743 -0.419459 37.8285 -0.569573 41.5813 1.33186L67.8512 14.4918C69.3524 15.2423 72.2546 15.1422 73.7557 14.3416L85.5145 7.6366C90.6184 4.73442 95.8723 4.33412 99.8253 6.68589C103.828 8.98762 106.08 13.6912 106.08 19.5956V68.2824C106.08 72.8358 103.078 77.9897 99.1248 80.2414L77.4585 92.6508C75.5571 93.6515 73.0552 94.2019 70.6033 94.2019ZM35.5267 71.735C37.6783 71.735 39.83 72.1854 41.5813 73.036L67.8512 86.1959C69.3524 86.9465 72.2546 86.8464 73.7557 86.0458L95.422 73.6364C97.0232 72.7358 98.5744 70.0337 98.5744 68.2324V19.5456C98.5744 16.3932 97.6737 14.0414 96.0224 13.1407C94.4212 12.2401 91.9194 12.5903 89.2173 14.1415L77.4585 20.8465C73.8057 22.9481 68.2515 23.0982 64.4987 21.1968L38.2288 8.0369C36.7276 7.28634 33.8255 7.38641 32.3243 8.18702L10.658 20.5964C9.05681 21.497 7.50565 24.1991 7.50565 26.0505V74.7373C7.50565 77.8896 8.40632 80.2414 10.0075 81.1421C11.6087 82.0928 14.1106 81.6925 16.8627 80.1413L28.6215 73.4363C30.573 72.2854 33.0749 71.735 35.5267 71.735Z" fill="white"/>
<path d="M35.1339 75.8871C33.0823 75.8871 31.381 74.1858 31.381 72.1343V7.08534C31.381 5.0338 33.0823 3.33252 35.1339 3.33252C37.1854 3.33252 38.8867 5.0338 38.8867 7.08534V72.1343C38.8867 74.1858 37.1854 75.8871 35.1339 75.8871Z" fill="white"/>
<path d="M71.0106 90.899C68.9591 90.899 67.2578 89.1977 67.2578 87.1462V20.1959C67.2578 18.1444 68.9591 16.4431 71.0106 16.4431C73.0621 16.4431 74.7634 18.1444 74.7634 20.1959V87.1462C74.7634 89.1977 73.0621 90.899 71.0106 90.899Z" fill="white"/>
</svg>
