<svg width="102" height="125" viewBox="0 0 102 125" fill="none" xmlns="http://www.w3.org/2000/svg">
<path d="M37.2933 121.99H6.215C4.4394 121.99 3 120.392 3 118.421V95.8125C3 93.841 4.4394 92.2428 6.215 92.2428H37.2933C39.0689 92.2428 40.5083 93.841 40.5083 95.8125V118.421C40.5083 120.392 39.0689 121.99 37.2933 121.99Z" stroke="black" stroke-width="5"/>
<path d="M66.7642 32.7476H35.6858C33.9102 32.7476 32.4708 31.1494 32.4708 29.1779V6.56979C32.4708 4.5983 33.9102 3.0001 35.6858 3.0001H66.7642C68.5398 3.0001 69.9792 4.5983 69.9792 6.56979V29.1779C69.9792 31.1494 68.5398 32.7476 66.7642 32.7476Z" stroke="black" stroke-width="5"/>
<path d="M96.235 121.99H65.1567C63.3811 121.99 61.9417 120.392 61.9417 118.421V95.8125C61.9417 93.841 63.3811 92.2428 65.1567 92.2428H96.235C98.0106 92.2428 99.45 93.841 99.45 95.8125V118.421C99.45 120.392 98.0106 121.99 96.235 121.99Z" stroke="black" stroke-width="5"/>
<path d="M21.7542 92.2422V71.419C21.7542 64.8472 26.5522 59.52 32.4708 59.52H69.9792C75.898 59.52 80.6958 64.8472 80.6958 71.419V92.2422" stroke="black" stroke-width="5"/>
<path d="M51.225 59.5203V32.7476" stroke="black" stroke-width="5"/>
</svg>
