<svg width="107" height="110" viewBox="0 0 107 110" fill="none" xmlns="http://www.w3.org/2000/svg">
<path d="M38.8774 53.3213C38.7232 53.3213 38.6203 53.3213 38.4661 53.3213C38.209 53.2699 37.8491 53.2699 37.5405 53.3213C22.6291 52.8585 11.3684 41.135 11.3684 26.6864C11.3684 11.9806 23.349 0 38.0547 0C52.7602 0 64.7408 11.9806 64.7408 26.6864C64.6894 41.135 53.3773 52.8585 39.0317 53.3213C38.9803 53.3213 38.9288 53.3213 38.8774 53.3213ZM38.0547 7.71282C27.6167 7.71282 19.0812 16.2483 19.0812 26.6864C19.0812 36.9701 27.1025 45.2485 37.3349 45.6085C37.6434 45.557 38.3118 45.557 38.9803 45.6085C49.0581 45.1457 56.9766 36.8673 57.028 26.6864C57.028 16.2483 48.4925 7.71282 38.0547 7.71282Z" fill="white"/>
<path d="M76.8237 53.9897C76.6695 53.9897 76.5152 53.9897 76.361 53.9382C74.2528 54.1439 72.0932 52.6528 71.8875 50.5446C71.6819 48.4364 72.9673 46.5339 75.0755 46.2768C75.6925 46.2254 76.361 46.2254 76.9266 46.2254C84.4337 45.8141 90.2955 39.6438 90.2955 32.0853C90.2955 24.2696 83.9709 17.9451 76.1553 17.9451C74.0471 17.9965 72.2989 16.2483 72.2989 14.1401C72.2989 12.0319 74.0471 10.2837 76.1553 10.2837C88.1873 10.2837 98.0083 20.1047 98.0083 32.1367C98.0083 43.963 88.7529 53.5269 76.978 53.9897C76.9266 53.9897 76.8751 53.9897 76.8237 53.9897Z" fill="white"/>
<path d="M38.924 109.522C28.8459 109.522 18.7164 106.951 11.055 101.809C3.90783 97.0786 0 90.5998 0 83.5554C0 76.511 3.90783 69.9809 11.055 65.1989C26.4807 54.9666 51.4702 54.9666 66.793 65.1989C73.8887 69.9294 77.848 76.4082 77.848 83.4526C77.848 90.4969 73.9402 97.0271 66.793 101.809C59.0801 106.951 49.0021 109.522 38.924 109.522ZM15.3228 71.6777C10.3866 74.9685 7.71282 79.1848 7.71282 83.6068C7.71282 87.9774 10.438 92.1938 15.3228 95.4332C28.1261 104.02 49.7219 104.02 62.5252 95.4332C67.4614 92.1423 70.1352 87.926 70.1352 83.504C70.1352 79.1334 67.41 74.9171 62.5252 71.6777C49.7219 63.1422 28.1261 63.1422 15.3228 71.6777Z" fill="white"/>
<path d="M86.0781 100.267C84.2785 100.267 82.6845 99.0327 82.3245 97.1816C81.9132 95.0734 83.2501 93.0681 85.3068 92.6053C88.5462 91.9369 91.5285 90.6514 93.8423 88.8517C96.7732 86.6407 98.3672 83.8641 98.3672 80.9332C98.3672 78.0024 96.7732 75.2258 93.8938 73.0662C91.6313 71.3179 88.8033 70.0839 85.4611 69.3126C83.4043 68.8498 82.0674 66.7931 82.5302 64.6849C82.993 62.6282 85.0497 61.2913 87.1579 61.754C91.5799 62.731 95.4363 64.4792 98.5729 66.8959C103.355 70.4952 106.08 75.5857 106.08 80.9332C106.08 86.2808 103.303 91.3713 98.5215 95.022C95.3335 97.4901 91.3228 99.2898 86.9008 100.164C86.5923 100.267 86.3352 100.267 86.0781 100.267Z" fill="white"/>
</svg>
