<svg width="107" height="106" viewBox="0 0 107 106" fill="none" xmlns="http://www.w3.org/2000/svg">
<path d="M102.246 87.3737L93.4932 89.4427C91.5304 89.9201 89.992 91.4055 89.5676 93.3684L87.7108 101.167C86.7029 105.411 81.2918 106.737 78.4801 103.395L62.6182 85.1456C61.345 83.6603 62.0346 81.3261 63.9444 80.8486C73.3343 78.5675 81.7692 73.3155 87.9761 65.8355C88.984 64.6153 90.7877 64.4562 91.9017 65.5702L103.679 77.3473C107.711 81.3791 106.278 86.4188 102.246 87.3737Z" fill="white"/>
<path d="M3.83351 87.3737L12.5868 89.4427C14.5496 89.9201 16.088 91.4055 16.5124 93.3684L18.3692 101.167C19.3771 105.411 24.7882 106.737 27.5999 103.395L43.4619 85.1456C44.7351 83.6603 44.0454 81.3261 42.1356 80.8486C32.7457 78.5675 24.3108 73.3155 18.1039 65.8355C17.096 64.6153 15.2923 64.4562 14.1782 65.5702L2.40117 77.3473C-1.63063 81.3791 -0.198281 86.4188 3.83351 87.3737Z" fill="white"/>
<path d="M53.1743 0C32.6439 0 16.0393 16.6046 16.0393 37.1349C16.0393 44.8272 18.3205 51.8828 22.2461 57.7714C27.9755 66.2594 37.0471 72.254 47.604 73.7924C49.4077 74.1107 51.2645 74.2699 53.1743 74.2699C55.084 74.2699 56.9408 74.1107 58.7445 73.7924C69.3014 72.254 78.373 66.2594 84.1024 57.7714C88.0281 51.8828 90.3092 44.8272 90.3092 37.1349C90.3092 16.6046 73.7046 0 53.1743 0ZM69.4075 35.9678L65.0044 40.371C64.2617 41.1137 63.8373 42.546 64.1025 43.607L65.3757 49.0712C66.3837 53.3682 64.1025 55.0658 60.2829 52.7847L54.978 49.6547C54.0231 49.0712 52.4316 49.0712 51.4767 49.6547L46.1717 52.7847C42.3521 55.0128 40.0709 53.3682 41.0789 49.0712L42.3521 43.607C42.5643 42.5991 42.1929 41.1137 41.4502 40.371L36.941 35.9678C34.3415 33.3684 35.1903 30.769 38.7977 30.1854L44.4741 29.2305C45.429 29.0714 46.543 28.2226 46.9674 27.3738L50.0974 21.1139C51.795 17.7187 54.5536 17.7187 56.2511 21.1139L59.3811 27.3738C59.8055 28.2226 60.9195 29.0714 61.9275 29.2305L67.6038 30.1854C71.1582 30.769 72.007 33.3684 69.4075 35.9678Z" fill="white"/>
</svg>
