<svg width="102" height="125" viewBox="0 0 102 125" fill="none" xmlns="http://www.w3.org/2000/svg">
<path d="M28.3816 3V19.9986" stroke="#292D32" stroke-width="5" stroke-miterlimit="10" stroke-linecap="round" stroke-linejoin="round"/>
<path d="M68.9921 3V19.9986" stroke="#292D32" stroke-width="5" stroke-miterlimit="10" stroke-linecap="round" stroke-linejoin="round"/>
<path d="M5.53821 43.1724H91.8356" stroke="#292D32" stroke-width="5" stroke-miterlimit="10" stroke-linecap="round" stroke-linejoin="round"/>
<path d="M99.45 99.3249C99.45 103.575 98.384 107.598 96.5057 110.997C93.0031 117.57 86.5562 121.99 79.1447 121.99C74.0177 121.99 69.3475 119.893 65.794 116.323C64.2204 114.85 62.8498 113.037 61.7837 110.997C59.9055 107.598 58.8395 103.575 58.8395 99.3249C58.8395 86.8026 67.9261 76.6602 79.1447 76.6602C85.2363 76.6602 90.668 79.6632 94.3737 84.3662C97.521 88.3892 99.45 93.6021 99.45 99.3249Z" stroke="#292D32" stroke-width="5" stroke-miterlimit="10" stroke-linecap="round" stroke-linejoin="round"/>
<path d="M71.2252 99.3253L76.2508 104.935L87.0633 93.7725" stroke="#292D32" stroke-width="5" stroke-linecap="round" stroke-linejoin="round"/>
<path d="M94.3737 39.8305V84.3667C90.668 79.6638 85.2363 76.6607 79.1447 76.6607C67.9261 76.6607 58.8395 86.8032 58.8395 99.3255C58.8395 103.575 59.9055 107.598 61.7837 110.998C62.8498 113.038 64.2204 114.851 65.794 116.324H28.3816C10.6145 116.324 3 104.992 3 87.9931V39.8305C3 22.8319 10.6145 11.4995 28.3816 11.4995H68.9921C86.7592 11.4995 94.3737 22.8319 94.3737 39.8305Z" stroke="#292D32" stroke-width="5" stroke-miterlimit="10" stroke-linecap="round" stroke-linejoin="round"/>
<path d="M48.664 69.2959H48.7097" stroke="#292D32" stroke-width="5" stroke-linecap="round" stroke-linejoin="round"/>
<path d="M29.8756 69.2959H29.9212" stroke="#292D32" stroke-width="5" stroke-linecap="round" stroke-linejoin="round"/>
<path d="M29.8756 86.2944H29.9212" stroke="#292D32" stroke-width="5" stroke-linecap="round" stroke-linejoin="round"/>
</svg>
