<svg width="107" height="107" viewBox="0 0 107 107" fill="none" xmlns="http://www.w3.org/2000/svg">
<path d="M27.7937 0H17.7158C6.09975 0 0 6.09975 0 17.6628V27.7406C0 39.3036 6.09975 45.4034 17.6628 45.4034H27.7406C39.3036 45.4034 45.4034 39.3036 45.4034 27.7406V17.6628C45.4564 6.09975 39.3567 0 27.7937 0Z" fill="white"/>
<path opacity="0.4" d="M88.4173 0H78.3394C66.7764 0 60.6766 6.09975 60.6766 17.6628V27.7406C60.6766 39.3036 66.7764 45.4034 78.3394 45.4034H88.4173C99.9803 45.4034 106.08 39.3036 106.08 27.7406V17.6628C106.08 6.09975 99.9803 0 88.4173 0Z" fill="white"/>
<path d="M88.4173 60.6272H78.3394C66.7764 60.6272 60.6766 66.727 60.6766 78.29V88.3678C60.6766 99.9308 66.7764 106.031 78.3394 106.031H88.4173C99.9803 106.031 106.08 99.9308 106.08 88.3678V78.29C106.08 66.727 99.9803 60.6272 88.4173 60.6272Z" fill="white"/>
<path opacity="0.4" d="M27.7937 60.6272H17.7158C6.09975 60.6272 0 66.727 0 78.29V88.3678C0 99.9839 6.09975 106.084 17.6628 106.084H27.7406C39.3036 106.084 45.4034 99.9839 45.4034 88.4209V78.343C45.4564 66.727 39.3567 60.6272 27.7937 60.6272Z" fill="white"/>
</svg>
