<svg width="432" height="432" viewBox="0 0 432 432" fill="none" xmlns="http://www.w3.org/2000/svg">
<path d="M216 0L403.061 324H28.9385L216 0Z" fill="#EE6C4D"/>
<path d="M216.5 48L361.559 299.25H71.4408L216.5 48Z" fill="white"/>
<path d="M63.9318 354H60.4091C60.2008 352.987 59.8362 352.097 59.3153 351.33C58.804 350.562 58.179 349.919 57.4403 349.398C56.7112 348.867 55.9015 348.47 55.0114 348.205C54.1212 347.939 53.1932 347.807 52.2273 347.807C50.4659 347.807 48.8703 348.252 47.4403 349.142C46.0199 350.032 44.8883 351.344 44.0455 353.077C43.2121 354.81 42.7955 356.936 42.7955 359.455C42.7955 361.973 43.2121 364.099 44.0455 365.832C44.8883 367.565 46.0199 368.877 47.4403 369.767C48.8703 370.657 50.4659 371.102 52.2273 371.102C53.1932 371.102 54.1212 370.97 55.0114 370.705C55.9015 370.439 56.7112 370.046 57.4403 369.526C58.179 368.995 58.804 368.347 59.3153 367.58C59.8362 366.803 60.2008 365.913 60.4091 364.909H63.9318C63.6667 366.396 63.1837 367.726 62.483 368.901C61.7822 370.075 60.911 371.074 59.8693 371.898C58.8277 372.712 57.6581 373.332 56.3608 373.759C55.0729 374.185 53.6951 374.398 52.2273 374.398C49.7462 374.398 47.5398 373.792 45.608 372.58C43.6761 371.367 42.1563 369.644 41.0483 367.409C39.9403 365.174 39.3864 362.523 39.3864 359.455C39.3864 356.386 39.9403 353.735 41.0483 351.5C42.1563 349.265 43.6761 347.542 45.608 346.33C47.5398 345.117 49.7462 344.511 52.2273 344.511C53.6951 344.511 55.0729 344.724 56.3608 345.151C57.6581 345.577 58.8277 346.202 59.8693 347.026C60.911 347.84 61.7822 348.834 62.483 350.009C63.1837 351.173 63.6667 352.504 63.9318 354ZM75.5902 374.511C74.2076 374.511 72.9529 374.251 71.826 373.73C70.6991 373.2 69.8042 372.438 69.1413 371.443C68.4785 370.439 68.147 369.227 68.147 367.807C68.147 366.557 68.3932 365.544 68.8857 364.767C69.3781 363.981 70.0362 363.366 70.8601 362.92C71.6839 362.475 72.593 362.144 73.5874 361.926C74.5911 361.699 75.5997 361.519 76.6129 361.386C77.9387 361.216 79.0135 361.088 79.8374 361.003C80.6707 360.908 81.2768 360.752 81.6555 360.534C82.0438 360.316 82.2379 359.937 82.2379 359.398V359.284C82.2379 357.883 81.8544 356.794 81.0874 356.017C80.3298 355.241 79.1792 354.852 77.6357 354.852C76.0353 354.852 74.7805 355.203 73.8714 355.903C72.9624 356.604 72.3232 357.352 71.9538 358.148L68.772 357.011C69.3402 355.686 70.0978 354.653 71.0447 353.915C72.0012 353.167 73.0429 352.646 74.1697 352.352C75.3061 352.049 76.4235 351.898 77.522 351.898C78.2228 351.898 79.0277 351.983 79.9368 352.153C80.8554 352.314 81.7408 352.651 82.593 353.162C83.4548 353.673 84.1697 354.445 84.7379 355.477C85.3061 356.509 85.5902 357.892 85.5902 359.625V374H82.2379V371.045H82.0675C81.8402 371.519 81.4614 372.026 80.9311 372.565C80.4008 373.105 79.6953 373.564 78.8146 373.943C77.9339 374.322 76.8591 374.511 75.5902 374.511ZM76.1016 371.5C77.4273 371.5 78.5447 371.24 79.4538 370.719C80.3724 370.198 81.0637 369.526 81.5277 368.702C82.0012 367.878 82.2379 367.011 82.2379 366.102V363.034C82.0959 363.205 81.7834 363.361 81.3004 363.503C80.8269 363.635 80.2777 363.754 79.6527 363.858C79.0372 363.953 78.4358 364.038 77.8487 364.114C77.2711 364.18 76.8023 364.237 76.4425 364.284C75.5713 364.398 74.7569 364.582 73.9993 364.838C73.2512 365.084 72.6451 365.458 72.1811 365.96C71.7266 366.453 71.4993 367.125 71.4993 367.977C71.4993 369.142 71.9302 370.023 72.7919 370.619C73.6631 371.206 74.7663 371.5 76.1016 371.5ZM91.7088 374V352.182H94.9474V355.477H95.1747C95.5724 354.398 96.2921 353.522 97.3338 352.849C98.3755 352.177 99.5497 351.841 100.857 351.841C101.103 351.841 101.411 351.846 101.78 351.855C102.149 351.865 102.429 351.879 102.618 351.898V355.307C102.504 355.278 102.244 355.236 101.837 355.179C101.439 355.113 101.018 355.08 100.572 355.08C99.5118 355.08 98.5649 355.302 97.7315 355.747C96.9077 356.183 96.2543 356.789 95.7713 357.565C95.2978 358.332 95.0611 359.208 95.0611 360.193V374H91.7088ZM113.012 374.511C111.629 374.511 110.375 374.251 109.248 373.73C108.121 373.2 107.226 372.438 106.563 371.443C105.9 370.439 105.569 369.227 105.569 367.807C105.569 366.557 105.815 365.544 106.308 364.767C106.8 363.981 107.458 363.366 108.282 362.92C109.106 362.475 110.015 362.144 111.009 361.926C112.013 361.699 113.022 361.519 114.035 361.386C115.361 361.216 116.435 361.088 117.259 361.003C118.093 360.908 118.699 360.752 119.077 360.534C119.466 360.316 119.66 359.937 119.66 359.398V359.284C119.66 357.883 119.276 356.794 118.509 356.017C117.752 355.241 116.601 354.852 115.058 354.852C113.457 354.852 112.202 355.203 111.293 355.903C110.384 356.604 109.745 357.352 109.376 358.148L106.194 357.011C106.762 355.686 107.52 354.653 108.467 353.915C109.423 353.167 110.465 352.646 111.592 352.352C112.728 352.049 113.845 351.898 114.944 351.898C115.645 351.898 116.45 351.983 117.359 352.153C118.277 352.314 119.163 352.651 120.015 353.162C120.877 353.673 121.592 354.445 122.16 355.477C122.728 356.509 123.012 357.892 123.012 359.625V374H119.66V371.045H119.489C119.262 371.519 118.883 372.026 118.353 372.565C117.823 373.105 117.117 373.564 116.237 373.943C115.356 374.322 114.281 374.511 113.012 374.511ZM113.523 371.5C114.849 371.5 115.967 371.24 116.876 370.719C117.794 370.198 118.486 369.526 118.95 368.702C119.423 367.878 119.66 367.011 119.66 366.102V363.034C119.518 363.205 119.205 363.361 118.722 363.503C118.249 363.635 117.7 363.754 117.075 363.858C116.459 363.953 115.858 364.038 115.271 364.114C114.693 364.18 114.224 364.237 113.864 364.284C112.993 364.398 112.179 364.582 111.421 364.838C110.673 365.084 110.067 365.458 109.603 365.96C109.148 366.453 108.921 367.125 108.921 367.977C108.921 369.142 109.352 370.023 110.214 370.619C111.085 371.206 112.188 371.5 113.523 371.5ZM113.637 349.227L117.103 342.636H121.023L116.592 349.227H113.637ZM138.619 352.182V355.023H127.312V352.182H138.619ZM130.608 346.955H133.96V367.75C133.96 368.697 134.098 369.407 134.372 369.881C134.656 370.345 135.016 370.657 135.452 370.818C135.897 370.97 136.366 371.045 136.858 371.045C137.227 371.045 137.53 371.027 137.767 370.989C138.004 370.941 138.193 370.903 138.335 370.875L139.017 373.886C138.79 373.972 138.473 374.057 138.065 374.142C137.658 374.237 137.142 374.284 136.517 374.284C135.57 374.284 134.642 374.08 133.733 373.673C132.833 373.266 132.085 372.646 131.489 371.812C130.902 370.979 130.608 369.928 130.608 368.659V346.955ZM152.575 374.455C150.473 374.455 148.66 373.991 147.135 373.062C145.62 372.125 144.45 370.818 143.626 369.142C142.812 367.456 142.405 365.496 142.405 363.261C142.405 361.027 142.812 359.057 143.626 357.352C144.45 355.638 145.596 354.303 147.064 353.347C148.541 352.381 150.265 351.898 152.234 351.898C153.371 351.898 154.493 352.087 155.601 352.466C156.709 352.845 157.717 353.46 158.626 354.312C159.536 355.155 160.26 356.273 160.8 357.665C161.339 359.057 161.609 360.771 161.609 362.807V364.227H144.791V361.33H158.2C158.2 360.098 157.954 359 157.462 358.034C156.979 357.068 156.287 356.306 155.388 355.747C154.498 355.188 153.446 354.909 152.234 354.909C150.899 354.909 149.744 355.241 148.768 355.903C147.803 356.557 147.059 357.409 146.538 358.46C146.018 359.511 145.757 360.638 145.757 361.841V363.773C145.757 365.42 146.041 366.817 146.609 367.963C147.187 369.099 147.987 369.966 149.01 370.562C150.033 371.15 151.221 371.443 152.575 371.443C153.456 371.443 154.251 371.32 154.962 371.074C155.681 370.818 156.302 370.439 156.822 369.938C157.343 369.426 157.746 368.792 158.03 368.034L161.268 368.943C160.928 370.042 160.355 371.008 159.55 371.841C158.745 372.665 157.75 373.309 156.567 373.773C155.383 374.227 154.053 374.455 152.575 374.455ZM166.709 374V352.182H169.947V355.477H170.175C170.572 354.398 171.292 353.522 172.334 352.849C173.375 352.177 174.55 351.841 175.857 351.841C176.103 351.841 176.411 351.846 176.78 351.855C177.149 351.865 177.429 351.879 177.618 351.898V355.307C177.504 355.278 177.244 355.236 176.837 355.179C176.439 355.113 176.018 355.08 175.572 355.08C174.512 355.08 173.565 355.302 172.732 355.747C171.908 356.183 171.254 356.789 170.771 357.565C170.298 358.332 170.061 359.208 170.061 360.193V374H166.709ZM193.296 374V344.909H203.126C205.408 344.909 207.273 345.321 208.722 346.145C210.181 346.959 211.26 348.062 211.961 349.455C212.662 350.847 213.012 352.4 213.012 354.114C213.012 355.828 212.662 357.385 211.961 358.787C211.27 360.188 210.2 361.306 208.751 362.139C207.302 362.963 205.446 363.375 203.183 363.375H196.137V360.25H203.069C204.631 360.25 205.886 359.98 206.833 359.44C207.78 358.901 208.467 358.171 208.893 357.253C209.328 356.325 209.546 355.278 209.546 354.114C209.546 352.949 209.328 351.907 208.893 350.989C208.467 350.07 207.775 349.35 206.819 348.83C205.862 348.299 204.594 348.034 203.012 348.034H196.819V374H193.296ZM218.232 374V352.182H221.471V355.477H221.698C222.096 354.398 222.816 353.522 223.857 352.849C224.899 352.177 226.073 351.841 227.38 351.841C227.626 351.841 227.934 351.846 228.303 351.855C228.673 351.865 228.952 351.879 229.141 351.898V355.307C229.028 355.278 228.767 355.236 228.36 355.179C227.962 355.113 227.541 355.08 227.096 355.08C226.035 355.08 225.088 355.302 224.255 355.747C223.431 356.183 222.778 356.789 222.295 357.565C221.821 358.332 221.585 359.208 221.585 360.193V374H218.232ZM233.115 374V352.182H236.467V374H233.115ZM234.82 348.545C234.166 348.545 233.603 348.323 233.129 347.878C232.665 347.433 232.433 346.898 232.433 346.273C232.433 345.648 232.665 345.113 233.129 344.668C233.603 344.223 234.166 344 234.82 344C235.473 344 236.032 344.223 236.496 344.668C236.969 345.113 237.206 345.648 237.206 346.273C237.206 346.898 236.969 347.433 236.496 347.878C236.032 348.323 235.473 348.545 234.82 348.545ZM252.323 352.182V355.023H240.562V352.182H252.323ZM244.085 374V349.17C244.085 347.92 244.378 346.879 244.965 346.045C245.552 345.212 246.315 344.587 247.252 344.17C248.19 343.754 249.179 343.545 250.221 343.545C251.045 343.545 251.717 343.612 252.238 343.744C252.759 343.877 253.147 344 253.403 344.114L252.437 347.011C252.266 346.955 252.03 346.884 251.727 346.798C251.433 346.713 251.045 346.67 250.562 346.67C249.454 346.67 248.654 346.95 248.161 347.509C247.678 348.067 247.437 348.886 247.437 349.966V374H244.085ZM257.021 374V352.182H260.374V374H257.021ZM258.726 348.545C258.072 348.545 257.509 348.323 257.036 347.878C256.571 347.433 256.339 346.898 256.339 346.273C256.339 345.648 256.571 345.113 257.036 344.668C257.509 344.223 258.072 344 258.726 344C259.379 344 259.938 344.223 260.402 344.668C260.875 345.113 261.112 345.648 261.112 346.273C261.112 346.898 260.875 347.433 260.402 347.878C259.938 348.323 259.379 348.545 258.726 348.545ZM281.968 357.068L278.957 357.92C278.767 357.419 278.488 356.931 278.119 356.457C277.759 355.974 277.266 355.577 276.641 355.264C276.016 354.952 275.216 354.795 274.241 354.795C272.906 354.795 271.793 355.103 270.903 355.719C270.022 356.325 269.582 357.097 269.582 358.034C269.582 358.867 269.885 359.526 270.491 360.009C271.097 360.491 272.044 360.894 273.332 361.216L276.57 362.011C278.521 362.485 279.975 363.209 280.931 364.185C281.888 365.151 282.366 366.396 282.366 367.92C282.366 369.17 282.006 370.288 281.286 371.273C280.576 372.258 279.582 373.034 278.303 373.602C277.025 374.17 275.538 374.455 273.843 374.455C271.618 374.455 269.776 373.972 268.317 373.006C266.859 372.04 265.936 370.629 265.548 368.773L268.729 367.977C269.032 369.152 269.605 370.032 270.448 370.619C271.3 371.206 272.413 371.5 273.786 371.5C275.349 371.5 276.589 371.169 277.508 370.506C278.436 369.833 278.9 369.028 278.9 368.091C278.9 367.333 278.635 366.699 278.104 366.188C277.574 365.667 276.76 365.278 275.661 365.023L272.025 364.17C270.027 363.697 268.559 362.963 267.621 361.969C266.693 360.965 266.229 359.71 266.229 358.205C266.229 356.973 266.575 355.884 267.266 354.938C267.967 353.991 268.919 353.247 270.121 352.707C271.334 352.168 272.707 351.898 274.241 351.898C276.4 351.898 278.095 352.371 279.326 353.318C280.567 354.265 281.447 355.515 281.968 357.068ZM302.866 357.068L299.855 357.92C299.666 357.419 299.386 356.931 299.017 356.457C298.657 355.974 298.165 355.577 297.54 355.264C296.915 354.952 296.115 354.795 295.139 354.795C293.804 354.795 292.691 355.103 291.801 355.719C290.92 356.325 290.48 357.097 290.48 358.034C290.48 358.867 290.783 359.526 291.389 360.009C291.995 360.491 292.942 360.894 294.23 361.216L297.469 362.011C299.42 362.485 300.873 363.209 301.83 364.185C302.786 365.151 303.264 366.396 303.264 367.92C303.264 369.17 302.904 370.288 302.185 371.273C301.474 372.258 300.48 373.034 299.202 373.602C297.923 374.17 296.437 374.455 294.741 374.455C292.516 374.455 290.674 373.972 289.216 373.006C287.758 372.04 286.834 370.629 286.446 368.773L289.628 367.977C289.931 369.152 290.504 370.032 291.347 370.619C292.199 371.206 293.312 371.5 294.685 371.5C296.247 371.5 297.488 371.169 298.406 370.506C299.334 369.833 299.798 369.028 299.798 368.091C299.798 367.333 299.533 366.699 299.003 366.188C298.473 365.667 297.658 365.278 296.56 365.023L292.923 364.17C290.925 363.697 289.457 362.963 288.52 361.969C287.592 360.965 287.128 359.71 287.128 358.205C287.128 356.973 287.473 355.884 288.165 354.938C288.866 353.991 289.817 353.247 291.02 352.707C292.232 352.168 293.605 351.898 295.139 351.898C297.298 351.898 298.993 352.371 300.224 353.318C301.465 354.265 302.346 355.515 302.866 357.068ZM308.31 374V352.182H311.663V374H308.31ZM310.015 348.545C309.362 348.545 308.798 348.323 308.325 347.878C307.861 347.433 307.629 346.898 307.629 346.273C307.629 345.648 307.861 345.113 308.325 344.668C308.798 344.223 309.362 344 310.015 344C310.668 344 311.227 344.223 311.691 344.668C312.165 345.113 312.401 345.648 312.401 346.273C312.401 346.898 312.165 347.433 311.691 347.878C311.227 348.323 310.668 348.545 310.015 348.545ZM326.666 374.455C324.696 374.455 322.968 373.986 321.482 373.048C320.004 372.111 318.849 370.799 318.016 369.114C317.192 367.428 316.78 365.458 316.78 363.205C316.78 360.932 317.192 358.948 318.016 357.253C318.849 355.558 320.004 354.241 321.482 353.304C322.968 352.366 324.696 351.898 326.666 351.898C328.636 351.898 330.359 352.366 331.837 353.304C333.323 354.241 334.479 355.558 335.303 357.253C336.136 358.948 336.553 360.932 336.553 363.205C336.553 365.458 336.136 367.428 335.303 369.114C334.479 370.799 333.323 372.111 331.837 373.048C330.359 373.986 328.636 374.455 326.666 374.455ZM326.666 371.443C328.162 371.443 329.393 371.06 330.359 370.293C331.325 369.526 332.04 368.517 332.504 367.267C332.968 366.017 333.2 364.663 333.2 363.205C333.2 361.746 332.968 360.387 332.504 359.128C332.04 357.868 331.325 356.85 330.359 356.074C329.393 355.297 328.162 354.909 326.666 354.909C325.17 354.909 323.939 355.297 322.973 356.074C322.007 356.85 321.292 357.868 320.828 359.128C320.364 360.387 320.132 361.746 320.132 363.205C320.132 364.663 320.364 366.017 320.828 367.267C321.292 368.517 322.007 369.526 322.973 370.293C323.939 371.06 325.17 371.443 326.666 371.443ZM345.022 360.875V374H341.67V352.182H344.908V355.591H345.192C345.704 354.483 346.48 353.593 347.522 352.92C348.564 352.239 349.908 351.898 351.556 351.898C353.033 351.898 354.326 352.201 355.434 352.807C356.542 353.403 357.404 354.312 358.019 355.534C358.635 356.746 358.942 358.28 358.942 360.136V374H355.59V360.364C355.59 358.65 355.145 357.314 354.255 356.358C353.365 355.392 352.143 354.909 350.59 354.909C349.52 354.909 348.564 355.141 347.721 355.605C346.888 356.069 346.229 356.746 345.746 357.636C345.263 358.527 345.022 359.606 345.022 360.875ZM371.489 374.511C370.106 374.511 368.851 374.251 367.724 373.73C366.598 373.2 365.703 372.438 365.04 371.443C364.377 370.439 364.045 369.227 364.045 367.807C364.045 366.557 364.292 365.544 364.784 364.767C365.277 363.981 365.935 363.366 366.759 362.92C367.582 362.475 368.491 362.144 369.486 361.926C370.49 361.699 371.498 361.519 372.511 361.386C373.837 361.216 374.912 361.088 375.736 361.003C376.569 360.908 377.175 360.752 377.554 360.534C377.942 360.316 378.136 359.937 378.136 359.398V359.284C378.136 357.883 377.753 356.794 376.986 356.017C376.228 355.241 375.078 354.852 373.534 354.852C371.934 354.852 370.679 355.203 369.77 355.903C368.861 356.604 368.222 357.352 367.852 358.148L364.67 357.011C365.239 355.686 365.996 354.653 366.943 353.915C367.9 353.167 368.941 352.646 370.068 352.352C371.205 352.049 372.322 351.898 373.42 351.898C374.121 351.898 374.926 351.983 375.835 352.153C376.754 352.314 377.639 352.651 378.491 353.162C379.353 353.673 380.068 354.445 380.636 355.477C381.205 356.509 381.489 357.892 381.489 359.625V374H378.136V371.045H377.966C377.739 371.519 377.36 372.026 376.83 372.565C376.299 373.105 375.594 373.564 374.713 373.943C373.832 374.322 372.758 374.511 371.489 374.511ZM372 371.5C373.326 371.5 374.443 371.24 375.352 370.719C376.271 370.198 376.962 369.526 377.426 368.702C377.9 367.878 378.136 367.011 378.136 366.102V363.034C377.994 363.205 377.682 363.361 377.199 363.503C376.725 363.635 376.176 363.754 375.551 363.858C374.936 363.953 374.334 364.038 373.747 364.114C373.17 364.18 372.701 364.237 372.341 364.284C371.47 364.398 370.655 364.582 369.898 364.838C369.15 365.084 368.544 365.458 368.08 365.96C367.625 366.453 367.398 367.125 367.398 367.977C367.398 369.142 367.829 370.023 368.69 370.619C369.562 371.206 370.665 371.5 372 371.5ZM390.96 344.909V374H387.607V344.909H390.96Z" fill="black"/>
<path d="M241.501 215.365L249.168 231.868C249.168 231.868 283.668 239.195 283.668 256.623C283.668 269 268.334 269 268.334 269H227.445L207.32 257.82" stroke="black" stroke-width="5" stroke-linecap="round" stroke-linejoin="round"/>
<path d="M195.501 215.365L187.834 231.868C187.834 231.868 153.334 239.195 153.334 256.623C153.334 269 168.668 269 168.668 269H187.196L207.321 257.82L231.919 242.167" stroke="black" stroke-width="5" stroke-linecap="round" stroke-linejoin="round"/>
<path d="M138 223.618C138 223.618 157.167 219.493 168.667 215.367C180.167 157.606 214.667 161.732 218.501 161.732C222.334 161.732 256.834 157.606 268.334 215.367C279.834 219.493 299.002 223.618 299.002 223.618" stroke="black" stroke-width="5" stroke-linecap="round" stroke-linejoin="round"/>
<path d="M218.501 143.778C228.381 143.778 236.39 135.769 236.39 125.889C236.39 116.009 228.381 108 218.501 108C208.621 108 200.612 116.009 200.612 125.889C200.612 135.769 208.621 143.778 218.501 143.778Z" stroke="black" stroke-width="5" stroke-linecap="round" stroke-linejoin="round"/>
</svg>
