<svg width="115" height="114" viewBox="0 0 115 114" fill="none" xmlns="http://www.w3.org/2000/svg">
<path d="M83.48 25.4827C94.1413 32.8923 101.498 44.673 102.99 58.2659" stroke="white" stroke-width="7.99598" stroke-linecap="round" stroke-linejoin="round"/>
<path d="M11.6761 58.5332C13.0621 44.9932 20.3118 33.2124 30.8665 25.7495" stroke="white" stroke-width="7.99598" stroke-linecap="round" stroke-linejoin="round"/>
<path d="M36.7303 104.215C42.9138 107.36 49.9503 109.119 57.3599 109.119C64.5029 109.119 71.2196 107.52 77.2432 104.588" stroke="white" stroke-width="7.99598" stroke-linecap="round" stroke-linejoin="round"/>
<path d="M57.3599 33.6384C65.5446 33.6384 72.1791 27.0037 72.1791 18.8192C72.1791 10.6348 65.5446 4 57.3599 4C49.1757 4 42.5408 10.6348 42.5408 18.8192C42.5408 27.0037 49.1757 33.6384 57.3599 33.6384Z" stroke="white" stroke-width="7.99598" stroke-linecap="round" stroke-linejoin="round"/>
<path d="M18.8192 98.7788C27.0036 98.7788 33.6384 92.1437 33.6384 83.9596C33.6384 75.7749 27.0036 69.1404 18.8192 69.1404C10.6348 69.1404 4 75.7749 4 83.9596C4 92.1437 10.6348 98.7788 18.8192 98.7788Z" stroke="white" stroke-width="7.99598" stroke-linecap="round" stroke-linejoin="round"/>
<path d="M95.2608 98.7788C103.445 98.7788 110.08 92.1437 110.08 83.9596C110.08 75.7749 103.445 69.1404 95.2608 69.1404C87.0766 69.1404 80.4416 75.7749 80.4416 83.9596C80.4416 92.1437 87.0766 98.7788 95.2608 98.7788Z" stroke="white" stroke-width="7.99598" stroke-linecap="round" stroke-linejoin="round"/>
</svg>
