<svg width="190" height="190" viewBox="0 0 190 190" fill="none" xmlns="http://www.w3.org/2000/svg">
<circle cx="95" cy="95" r="95" fill="#EE6C4D"/>
<circle cx="95" cy="95" r="85" fill="white"/>
<path d="M148.062 152.04H41.9781C39.8034 152.04 38 150.236 38 148.062C38 145.887 39.8034 144.084 41.9781 144.084H148.062C150.237 144.084 152.04 145.887 152.04 148.062C152.04 150.236 150.237 152.04 148.062 152.04Z" fill="#292D32"/>
<path d="M106.954 152.04H83.0856C80.9108 152.04 79.1074 150.237 79.1074 148.062V52.5865C79.1074 43.4633 84.1464 38 92.6331 38H97.4069C105.894 38 110.933 43.4633 110.933 52.5865V148.062C110.933 150.237 109.129 152.04 106.954 152.04ZM87.0637 144.084H102.976V52.5865C102.976 46.4867 100.112 45.9563 97.4069 45.9563H92.6331C89.928 45.9563 87.0637 46.4867 87.0637 52.5865V144.084Z" fill="#292D32"/>
<path d="M68.4991 152.04H47.2823C45.1076 152.04 43.3042 150.237 43.3042 148.062V84.4117C43.3042 75.2885 47.9719 69.8252 55.769 69.8252H60.0124C67.8095 69.8252 72.4772 75.2885 72.4772 84.4117V148.062C72.4772 150.237 70.6738 152.04 68.4991 152.04ZM51.2605 144.084H64.5209V84.4117C64.5209 77.7815 61.6036 77.7815 60.0124 77.7815H55.769C54.1778 77.7815 51.2605 77.7815 51.2605 84.4117V144.084Z" fill="#292D32"/>
<path d="M142.758 152.04H121.541C119.366 152.04 117.563 150.236 117.563 148.062V110.932C117.563 101.809 122.23 96.3459 130.028 96.3459H134.271C142.068 96.3459 146.736 101.809 146.736 110.932V148.062C146.736 150.236 144.932 152.04 142.758 152.04ZM125.519 144.084H138.78V110.932C138.78 104.302 135.862 104.302 134.271 104.302H130.028C128.436 104.302 125.519 104.302 125.519 110.932V144.084Z" fill="#292D32"/>
</svg>
