<svg width="190" height="190" viewBox="0 0 190 190" fill="none" xmlns="http://www.w3.org/2000/svg">
<circle cx="95" cy="95" r="95" fill="#EE6C4D"/>
<circle cx="95" cy="95" r="85" fill="white"/>
<path d="M124.759 74.9054C124.611 74.9054 124.512 74.9054 124.363 74.9054H124.116C114.778 74.6089 107.812 67.3954 107.812 58.5021C107.812 49.4111 115.223 42.0494 124.265 42.0494C133.306 42.0494 140.717 49.4605 140.717 58.5021C140.668 67.4448 133.701 74.6583 124.808 74.9547C124.808 74.9053 124.808 74.9054 124.759 74.9054ZM124.265 49.4112C119.275 49.4112 115.223 53.4626 115.223 58.4527C115.223 63.344 119.028 67.2966 123.919 67.4943C123.968 67.4449 124.363 67.4449 124.808 67.4943C129.601 67.2472 133.306 63.2946 133.356 58.4527C133.356 53.4626 129.304 49.4112 124.265 49.4112Z" fill="#292D32"/>
<path d="M124.809 111.319C122.882 111.319 120.955 111.171 119.028 110.825C117.003 110.479 115.669 108.552 116.015 106.526C116.36 104.501 118.287 103.167 120.313 103.513C126.39 104.55 132.813 103.414 137.112 100.549C139.434 99.0171 140.669 97.0897 140.669 95.1628C140.669 93.2359 139.384 91.3584 137.112 89.8268C132.813 86.9612 126.291 85.8248 120.165 86.9118C118.139 87.307 116.212 85.9236 115.866 83.8982C115.521 81.8725 116.855 79.9456 118.88 79.5997C126.934 78.1669 135.283 79.6985 141.212 83.6511C145.56 86.5659 148.08 90.7161 148.08 95.1628C148.08 99.56 145.61 103.76 141.212 106.725C136.716 109.689 130.886 111.319 124.809 111.319Z" fill="#292D32"/>
<path d="M65.3226 74.9053C65.2732 74.9053 65.2238 74.9053 65.2238 74.9053C56.3304 74.6088 49.364 67.3954 49.3146 58.502C49.3146 49.4111 56.7257 42 65.7672 42C74.8088 42 82.2199 49.4111 82.2199 58.4526C82.2199 67.3954 75.2535 74.6088 66.3601 74.9053L65.3226 71.1997L65.6684 74.9053C65.5696 74.9053 65.4214 74.9053 65.3226 74.9053ZM65.8167 67.4942C66.1131 67.4942 66.3601 67.4942 66.6566 67.5436C71.0538 67.346 74.9076 63.3934 74.9076 58.502C74.9076 53.5119 70.8562 49.4605 65.8661 49.4605C60.8759 49.4605 56.8245 53.5119 56.8245 58.502C56.8245 63.344 60.5795 67.2471 65.372 67.5436C65.4214 67.4942 65.619 67.4942 65.8167 67.4942Z" fill="#292D32"/>
<path d="M65.2709 111.319C59.1937 111.319 53.3637 109.689 48.8676 106.725C44.5198 103.81 42 99.6094 42 95.1628C42 90.7655 44.5198 86.5659 48.8676 83.6511C54.7965 79.6985 63.1463 78.1669 71.1997 79.5997C73.2254 79.9456 74.5594 81.8725 74.2136 83.8982C73.8677 85.9236 71.9408 87.307 69.9151 86.9118C63.7886 85.8248 57.3163 86.9612 52.9684 89.8268C50.6463 91.3584 49.4111 93.2359 49.4111 95.1628C49.4111 97.0897 50.6957 99.0171 52.9684 100.549C57.2669 103.414 63.6898 104.55 69.7669 103.513C71.7926 103.167 73.7195 104.55 74.0654 106.526C74.4112 108.552 73.0772 110.479 71.0515 110.825C69.1246 111.171 67.1977 111.319 65.2709 111.319Z" fill="#292D32"/>
<path d="M95.1144 111.813C94.9661 111.813 94.8673 111.813 94.7191 111.813H94.4721C85.1341 111.516 78.1677 104.303 78.1677 95.4093C78.1677 86.3184 85.5787 78.9566 94.6203 78.9566C103.662 78.9566 111.073 86.3678 111.073 95.4093C111.024 104.352 104.057 111.566 95.1638 111.862C95.1638 111.813 95.1638 111.813 95.1144 111.813ZM94.6203 86.3184C89.6301 86.3184 85.5787 90.3698 85.5787 95.3599C85.5787 100.251 89.3831 104.204 94.2744 104.401C94.3238 104.352 94.7191 104.352 95.1638 104.401C99.9563 104.154 103.662 100.202 103.711 95.3599C103.711 90.4192 99.6598 86.3184 94.6203 86.3184Z" fill="#292D32"/>
<path d="M95.1094 148.275C89.1805 148.275 83.2517 146.743 78.6568 143.631C74.3089 140.716 71.7892 136.566 71.7892 132.119C71.7892 127.722 74.2595 123.473 78.6568 120.558C87.8959 114.431 102.372 114.431 111.562 120.558C115.91 123.473 118.43 127.623 118.43 132.069C118.43 136.467 115.959 140.716 111.562 143.631C106.967 146.694 101.038 148.275 95.1094 148.275ZM82.7576 126.783C80.4354 128.314 79.2003 130.241 79.2003 132.168C79.2003 134.095 80.4848 135.973 82.7576 137.504C89.4276 142 100.742 142 107.412 137.504C109.734 135.973 110.969 134.046 110.969 132.119C110.969 130.192 109.685 128.314 107.412 126.783C100.791 122.287 89.477 122.336 82.7576 126.783Z" fill="#292D32"/>
</svg>
