<svg width="190" height="190" viewBox="0 0 190 190" fill="none" xmlns="http://www.w3.org/2000/svg">
<circle cx="95" cy="95" r="95" fill="#EE6C4D"/>
<circle cx="95" cy="95" r="85" fill="white"/>
<path d="M65.0459 131.247C62.0708 131.247 59.2908 130.222 57.2912 128.32C54.7551 125.931 53.5358 122.321 53.9747 118.42L55.7793 102.618C56.1207 99.6424 57.9252 95.6919 60.0224 93.5459L100.064 51.1634C110.063 40.5798 120.5 40.2872 131.083 50.2855C141.667 60.2837 141.959 70.7209 131.961 81.3044L91.9193 123.687C89.8709 125.882 86.0667 127.93 83.0916 128.418L67.387 131.1C66.5579 131.149 65.8263 131.247 65.0459 131.247ZM115.72 50.2367C111.965 50.2367 108.697 52.5777 105.38 56.0893L65.3386 98.5212C64.3631 99.5454 63.2414 101.984 63.0463 103.398L61.2417 119.2C61.0466 120.809 61.4368 122.126 62.3147 122.955C63.1926 123.785 64.5094 124.077 66.1189 123.833L81.8235 121.151C83.2379 120.907 85.5789 119.639 86.5544 118.615L126.596 76.2321C132.644 69.7942 134.839 63.8441 126.011 55.5528C122.109 51.7974 118.744 50.2367 115.72 50.2367Z" fill="#292D32"/>
<path d="M122.599 89.4481C122.501 89.4481 122.355 89.4481 122.257 89.4481C107.041 87.9362 94.7988 76.3775 92.4578 61.2582C92.1651 59.2586 93.5307 57.4052 95.5304 57.0638C97.53 56.7712 99.3834 58.1368 99.7248 60.1364C101.578 71.9393 111.137 81.0108 123.038 82.1814C125.037 82.3765 126.501 84.181 126.306 86.1804C126.062 88.0338 124.452 89.4481 122.599 89.4481Z" fill="#292D32"/>
<path d="M140.447 147H52.6579C50.6582 147 49 145.342 49 143.342C49 141.342 50.6582 139.684 52.6579 139.684H140.447C142.447 139.684 144.105 141.342 144.105 143.342C144.105 145.342 142.447 147 140.447 147Z" fill="#292D32"/>
</svg>
